<?xml version="1.0" encoding="utf-8"?>
<!-- Generator: Adobe Illustrator 23.0.1, SVG Export Plug-In . SVG Version: 6.00 Build 0)  -->
<svg version="1.1" id="레이어_1" xmlns="http://www.w3.org/2000/svg" xmlns:xlink="http://www.w3.org/1999/xlink" x="0px"
	 y="0px" width="72px" height="504px" viewBox="0 0 72 504" style="enable-background:new 0 0 72 504;" xml:space="preserve">
<style type="text/css">
	.st0{fill:none;}
	.st1{opacity:0.2;fill:#7491D6;enable-background:new    ;}
	.st2{fill:#434343;}
	.st3{fill:none;stroke:#434343;stroke-width:1.5;stroke-linecap:round;stroke-linejoin:round;}
	.st4{fill:none;stroke:#434343;stroke-width:1.5;stroke-linecap:round;stroke-miterlimit:10;}
</style>
<g id="사각형_248">
	<rect y="288" class="st0" width="72" height="72"/>
</g>
<g>
	<circle id="타원_25" class="st1" cx="47" cy="335" r="25"/>
	<g id="그룹_438" transform="translate(5 5)">
		<path class="st2" d="M50.4,345.5H0c-0.4,0-0.8-0.3-0.8-0.8S-0.4,344,0,344h50.4c0.4,0,0.8,0.3,0.8,0.8S50.8,345.5,50.4,345.5z"/>
		<g id="그룹_437" transform="translate(4.701)">
			<path class="st2" d="M0,336c-0.2,0-0.4-0.1-0.5-0.2c-0.2-0.2-0.3-0.5-0.2-0.7l4.5-15.6c0-0.1,0.1-0.2,0.2-0.3L34,289.1
				c2.4-2.4,6.4-2.4,8.9,0l3.3,3.3c2.4,2.4,2.4,6.4,0,8.9l-30.1,30.1c-0.1,0.1-0.2,0.2-0.3,0.2L0.2,336C0.1,336,0.1,336,0,336z
				 M5.1,320.1l-4,14.1l14.1-4l29.9-29.9c1.9-1.9,1.9-4.9,0-6.7l-3.3-3.3c-1.9-1.9-4.9-1.9-6.7,0L5.1,320.1z M15.6,330.8L15.6,330.8
				L15.6,330.8z"/>
			<path class="st2" d="M41.2,306c-0.2,0-0.4-0.1-0.5-0.2l-11.1-11.1c-0.3-0.3-0.3-0.8,0-1.1s0.8-0.3,1.1,0l11.1,11.1
				c0.3,0.3,0.3,0.8,0,1.1C41.6,305.9,41.4,306,41.2,306z"/>
		</g>
	</g>
</g>
<g id="사각형_247">
	<rect y="360" class="st0" width="72" height="72"/>
</g>
<g>
	<circle id="타원_26" class="st1" cx="47" cy="407" r="25"/>
	<g id="그룹_442" transform="translate(4.9 4.6)">
		<g id="그룹_440">
			<path class="st2" d="M44.8,398.4H12.4c-3.6,0-6.5-2.9-6.5-6.5v-31.8c0-0.4,0.3-0.8,0.8-0.8h44c0.4,0,0.8,0.3,0.8,0.8v31.8
				C51.4,395.5,48.4,398.4,44.8,398.4z M7.4,360.9v31c0,2.8,2.3,5,5,5h32.4c2.8,0,5-2.3,5-5v-31H7.4z"/>
			<path class="st2" d="M57.2,360.8H0c-0.4,0-0.8-0.3-0.8-0.8s0.3-0.8,0.8-0.8h57.2c0.4,0,0.8,0.3,0.8,0.8S57.6,360.8,57.2,360.8z"
				/>
		</g>
		<rect x="27.9" y="397.5" class="st2" width="1.5" height="9"/>
		<path class="st2" d="M28.6,413.3c-2.1,0-3.8-1.7-3.8-3.8s1.7-3.8,3.8-3.8s3.7,1.7,3.7,3.8S30.7,413.3,28.6,413.3z M28.6,407.3
			c-1.2,0-2.3,1-2.3,2.3s1,2.3,2.3,2.3s2.3-1,2.3-2.3S29.9,407.3,28.6,407.3z"/>
		<g id="그룹_441" transform="translate(12.028 8)">
			<path class="st2" d="M20,380l-10.9-9.9l-8.5,9.4c-0.3,0.3-0.8,0.3-1.1,0.1c-0.3-0.3-0.3-0.8-0.1-1.1l9.5-10.6L20,378l6-5l6.5,5.4
				c0.3,0.3,0.4,0.7,0.1,1.1c-0.3,0.3-0.7,0.4-1.1,0.1L26,375L20,380z"/>
			<path class="st2" d="M23,368.8c-2.6,0-4.8-2.1-4.8-4.8s2.1-4.8,4.8-4.8s4.8,2.1,4.8,4.8S25.6,368.8,23,368.8z M23,360.8
				c-1.8,0-3.3,1.5-3.3,3.3s1.5,3.3,3.3,3.3s3.3-1.5,3.3-3.3S24.8,360.8,23,360.8z"/>
		</g>
	</g>
</g>
<g id="사각형_244">
	<rect y="72" class="st0" width="72" height="72"/>
</g>
<g>
	<circle id="타원_32" class="st1" cx="47" cy="119" r="25"/>
	<g id="그룹_429" transform="translate(5 5.5)">
		<path class="st2" d="M26,117.9c-0.4,0-0.8-0.3-0.8-0.8v-39c0-0.4,0.3-0.8,0.8-0.8s0.8,0.3,0.8,0.8v39
			C26.8,117.5,26.4,117.9,26,117.9z"/>
		<path class="st2" d="M26,123.2c-0.4,0-0.8-0.3-0.8-0.8v-1.5c0-3-2.4-5.4-5.4-5.4H6.1c-3.8,0-6.9-3.1-6.9-6.9V78.1
			c0-3.8,3.1-6.9,6.9-6.9h13.8c3.8,0,6.9,3.1,6.9,6.9c0,0.4-0.3,0.8-0.8,0.8s-0.8-0.3-0.8-0.8c0-3-2.4-5.4-5.4-5.4H6.1
			c-3,0-5.4,2.4-5.4,5.4v30.6c0,3,2.4,5.4,5.4,5.4h13.8c3.8,0,6.9,3.1,6.9,6.9v1.5C26.8,122.9,26.4,123.2,26,123.2z"/>
		<path class="st2" d="M26,123.2c-0.4,0-0.8-0.3-0.8-0.8v-1.5c0-3.8,3.1-6.9,6.9-6.9h13.8c3,0,5.4-2.4,5.4-5.4V78.1
			c0-3-2.4-5.4-5.4-5.4H32.1c-3,0-5.4,2.4-5.4,5.4c0,0.4-0.3,0.8-0.8,0.8s-0.8-0.3-0.8-0.8c0-3.8,3.1-6.9,6.9-6.9h13.8
			c3.8,0,6.9,3.1,6.9,6.9v30.6c0,3.8-3.1,6.9-6.9,6.9H32.1c-3,0-5.4,2.4-5.4,5.4v1.5C26.8,122.9,26.4,123.2,26,123.2z"/>
	</g>
</g>
<g id="사각형_245">
	<rect y="144" class="st0" width="72" height="72"/>
</g>
<circle id="타원_33" class="st1" cx="47" cy="191" r="25"/>
<g id="그룹_433_1_" transform="translate(5 5)">
	<path class="st2" d="M23.7,190.6c-11.4,0-20.6-9.3-20.6-20.6c0-13.5,11.4-22.2,29-22.2c0,0,0,0,0,0c10.5,0,14.2-2.4,16.2-3.7
		c0.9-0.6,1.5-1,2.3-0.8l0,0c1.8,0.3,2.2,3.4,2.2,9.9C52.8,175.2,40.8,190.6,23.7,190.6z M32.1,149.3c-16.7,0-27.5,8.1-27.5,20.7
		c0,10.5,8.6,19.1,19.1,19.1c16.2,0,27.5-14.8,27.5-36c0-5.3-0.3-8.1-0.9-8.4c-0.2,0-0.7,0.3-1.2,0.6
		C47,146.8,43.1,149.3,32.1,149.3C32.1,149.3,32.1,149.3,32.1,149.3z M50.3,144.8L50.3,144.8L50.3,144.8z"/>
	<path class="st2" d="M0,196.8c-0.1,0-0.2,0-0.3-0.1c-0.4-0.2-0.5-0.6-0.4-1c4.2-8.7,14.5-20,24-26.3c0.3-0.2,0.8-0.1,1,0.2
		c0.2,0.3,0.1,0.8-0.2,1c-9.3,6.2-19.4,17.2-23.4,25.7C0.5,196.7,0.3,196.8,0,196.8z"/>
</g>
<g id="사각형_249">
	<rect y="216" class="st0" width="72" height="72"/>
</g>
<g>
	<path id="패스_4706" class="st1" d="M47,238c13.8,0,25,11.2,25,25c0,13.8-11.2,25-25,25s-25-11.2-25-25C22,249.2,33.2,238,47,238
		z"/>
	<g id="그룹_435" transform="translate(5 5)">
		<path class="st2" d="M48,265.9c-2.1,0-4.1-0.8-5.7-2.3c-5.8,3.3-13,3-18.5-0.7c-8.1-5.4-10.2-16.4-4.8-24.4
			c2.6-3.9,6.6-6.6,11.2-7.5c4.6-0.9,9.3,0,13.2,2.6c8,5.3,10.2,16.1,5,24.1c0.5,2.3,1.9,4.3,4,5.5c0.2,0.1,0.4,0.4,0.4,0.6
			c0,0.3-0.1,0.5-0.3,0.7C51,265.5,49.5,265.9,48,265.9z M42.5,261.9c0.2,0,0.4,0.1,0.6,0.3c1.9,2.2,4.9,2.8,7.5,1.7
			c-1.9-1.5-3.2-3.6-3.7-6.1c0-0.2,0-0.4,0.1-0.5c4.9-7.4,3-17.4-4.4-22.3c-3.6-2.4-7.9-3.3-12.1-2.4c-4.2,0.8-7.9,3.3-10.2,6.8
			c-4.9,7.4-3,17.4,4.4,22.3c5.2,3.5,12,3.6,17.4,0.3C42.2,261.9,42.3,261.9,42.5,261.9z"/>
		<path class="st2" d="M3.7,247.6c-1.4,0-2.8-0.4-4.1-1.2c-0.2-0.1-0.3-0.4-0.3-0.7c0-0.3,0.2-0.5,0.4-0.6c1.9-1.1,3.2-2.8,3.6-4.9
			c-4.8-7.4-2.7-17.3,4.6-22.2c7.4-5,17.5-3,22.5,4.4c1,1.4,1.7,3,2.2,4.7c0.1,0.4-0.1,0.8-0.5,0.9c-0.4,0.1-0.8-0.1-0.9-0.5
			c-0.4-1.5-1.1-3-2-4.3c-4.5-6.7-13.7-8.5-20.4-4c-6.7,4.5-8.5,13.7-4,20.4c0.1,0.2,0.1,0.4,0.1,0.5c-0.4,2.2-1.5,4.2-3.3,5.6
			c2.3,0.9,5,0.3,6.7-1.6c0.2-0.3,0.6-0.3,1-0.1c1.2,0.7,2.4,1.3,3.7,1.6c0.4,0.1,0.6,0.5,0.5,0.9s-0.5,0.6-0.9,0.5
			c-1.3-0.3-2.5-0.8-3.6-1.5C7.4,246.9,5.6,247.6,3.7,247.6z"/>
	</g>
</g>
<g id="사각형_243">
	<rect class="st0" width="72" height="72"/>
</g>
<g>
	<circle id="타원_31" class="st1" cx="47" cy="47" r="25"/>
	<g id="그룹_431" transform="translate(5.029 4.5)">
		<path class="st2" d="M45.9,54.3H6.1c-3.8,0-6.9-3.1-6.9-6.9V12.2c0-3.8,3.1-6.9,6.9-6.9h39.8c3.8,0,6.9,3.1,6.9,6.9v35.2
			C52.8,51.2,49.7,54.3,45.9,54.3z M6.1,6.9c-3,0-5.4,2.4-5.4,5.4v35.2c0,3,2.4,5.4,5.4,5.4h39.8c3,0,5.4-2.4,5.4-5.4V12.2
			c0-3-2.4-5.4-5.4-5.4H6.1z"/>
		<path class="st2" d="M52,19.1H0c-0.4,0-0.8-0.3-0.8-0.8s0.3-0.8,0.8-0.8h52c0.4,0,0.8,0.3,0.8,0.8S52.4,19.1,52,19.1z"/>
		<path class="st2" d="M12.2,11.5c-0.4,0-0.8-0.3-0.8-0.8V0c0-0.4,0.3-0.8,0.8-0.8S13-0.4,13,0v10.7C13,11.1,12.6,11.5,12.2,11.5z"
			/>
		<path class="st2" d="M39.8,11.5c-0.4,0-0.8-0.3-0.8-0.8V0c0-0.4,0.3-0.8,0.8-0.8s0.8,0.3,0.8,0.8v10.7
			C40.5,11.1,40.2,11.5,39.8,11.5z"/>
		<path class="st2" d="M24.5,43.6c-0.2,0-0.4-0.1-0.5-0.2l-7.6-7.6c-0.3-0.3-0.3-0.8,0-1.1c0.3-0.3,0.8-0.3,1.1,0l7.1,7.1L39.2,27
			c0.3-0.3,0.8-0.3,1.1,0s0.3,0.8,0,1.1L25,43.4C24.9,43.5,24.7,43.6,24.5,43.6z"/>
	</g>
</g>
<g id="사각형_246">
	<rect y="432" class="st0" width="72" height="72"/>
</g>
<g>
	<circle id="타원_29" class="st1" cx="47" cy="479" r="25"/>
	<g id="그룹_444" transform="translate(5 5)">
		<path id="패스_4567" class="st3" d="M21.5,449.9l12,8.4l-12,8.4V449.9z"/>
		<circle id="타원_30" class="st4" cx="26" cy="458" r="26"/>
	</g>
</g>
</svg>
