<svg xmlns="http://www.w3.org/2000/svg" width="125" height="18.212" viewBox="0 0 125 18.212">
  <g id="그룹_365" data-name="그룹 365" opacity="0.5">
    <path id="패스_1" data-name="패스 1" d="M0,17.384H3.725A29.821,29.821,0,0,0,8,17.108a9.959,9.959,0,0,0,2.759-1.242,8.065,8.065,0,0,0,2.345-2.9,10.081,10.081,0,0,0,.828-4.139,13.006,13.006,0,0,0-.69-4.139A10.483,10.483,0,0,0,10.9,1.656,8.423,8.423,0,0,0,8.14.414,20.693,20.693,0,0,0,3.311,0H0ZM10.624,8.692a8.9,8.9,0,0,1-.414,2.759,5.787,5.787,0,0,1-1.242,1.932,4.316,4.316,0,0,1-1.38.69,12.555,12.555,0,0,1-2.9.276H3.311V3.173h.828a16.171,16.171,0,0,1,3.311.276,1.916,1.916,0,0,1,1.38.69,4.677,4.677,0,0,1,1.242,1.932A5.252,5.252,0,0,1,10.624,8.692Z" transform="translate(0 0)" fill="#fff"/>
    <path id="패스_2" data-name="패스 2" d="M17.477,12.741a7.991,7.991,0,0,1-.828-4.277V.6H13.2V9.568a8.239,8.239,0,0,0,1.656,5.519,6.651,6.651,0,0,0,5.1,1.932,6.863,6.863,0,0,0,5.1-1.932,8.268,8.268,0,0,0,1.794-5.519V.6H23.41V8.464c0,1.932-.276,3.449-.828,4.139a3.129,3.129,0,0,1-2.621,1.1A2.611,2.611,0,0,1,17.477,12.741Z" transform="translate(5.012 0.228)" fill="#fff"/>
    <path id="패스_3" data-name="패스 3" d="M29.649,2.232V.852H26.2V16.58h3.449V8.854a6.279,6.279,0,0,1,1.1-3.725,2.925,2.925,0,0,1,2.483-1.38h.552c.138,0,.276.138.552.138l.69.138.276-.552L36.272.852,34.616.438,33.65.3h0a4.33,4.33,0,0,0-2.9.966A6.91,6.91,0,0,0,29.649,2.232Z" transform="translate(9.948 0.114)" fill="#fff"/>
    <path id="패스_4" data-name="패스 4" d="M37.07,2.85A8.757,8.757,0,0,0,35,8.92a8.757,8.757,0,0,0,2.07,6.071,7.079,7.079,0,0,0,5.519,2.345,5.647,5.647,0,0,0,3.449-.966,3.658,3.658,0,0,0,.828-.69v1.1h3.449V1.056H46.865V2.3c-.276-.276-.69-.552-.966-.828A7.284,7.284,0,0,0,42.312.5,6.089,6.089,0,0,0,37.07,2.85Zm2.621,9.934a6.135,6.135,0,0,1-1.1-3.863,6.878,6.878,0,0,1,1.1-4,3.393,3.393,0,0,1,3.035-1.38h0a4.057,4.057,0,0,1,3.035,1.242,5.71,5.71,0,0,1,1.1,3.725,6.3,6.3,0,0,1-1.1,4,3.393,3.393,0,0,1-3.035,1.38A3.241,3.241,0,0,1,39.691,12.783Z" transform="translate(13.289 0.186)" fill="#fff"/>
    <path id="패스_5" data-name="패스 5" d="M53.811,2.056V.952H50.5V16.68h3.449V8.4c0-1.794.276-3.035.966-3.725a3.424,3.424,0,0,1,2.759-1.1,2.716,2.716,0,0,1,2.208.828,4.745,4.745,0,0,1,.69,2.759v9.52h3.449V6.195A5.976,5.976,0,0,0,62.5,1.918,5.63,5.63,0,0,0,58.226.4a6.555,6.555,0,0,0-3.311.828A7.653,7.653,0,0,1,53.811,2.056Z" transform="translate(19.174 0.152)" fill="#fff"/>
    <path id="패스_6" data-name="패스 6" d="M68.311,2.156v-1.1L65,1.19V16.918h3.449V8.64a5.9,5.9,0,0,1,.966-3.863,3.424,3.424,0,0,1,2.759-1.1,2.716,2.716,0,0,1,2.208.828,4.745,4.745,0,0,1,.69,2.759v9.52h3.449V6.295A5.976,5.976,0,0,0,77,2.018,5.438,5.438,0,0,0,72.726.5a8.336,8.336,0,0,0-3.311.69C69,1.6,68.587,1.88,68.311,2.156Z" transform="translate(24.68 0.19)" fill="#fff"/>
    <path id="패스_7" data-name="패스 7" d="M80.2,2.5Z" transform="translate(30.451 0.949)" fill="#fff"/>
    <path id="패스_8" data-name="패스 8" d="M80.883,3.145A7.352,7.352,0,0,0,79.09,5.9a8.336,8.336,0,0,0-.69,3.311,9.275,9.275,0,0,0,.552,3.311,8.625,8.625,0,0,0,1.794,2.759A9.114,9.114,0,0,0,83.5,17.218a8.184,8.184,0,0,0,3.173.69,9.484,9.484,0,0,0,3.311-.69,7.7,7.7,0,0,0,2.759-1.932,7.352,7.352,0,0,0,1.794-2.759,8.184,8.184,0,0,0,.69-3.173,9.484,9.484,0,0,0-.69-3.311,11.834,11.834,0,0,0-1.794-2.759A8.625,8.625,0,0,0,89.989,1.49,8.88,8.88,0,0,0,86.678.8h0a8.184,8.184,0,0,0-3.173.69A5.561,5.561,0,0,0,80.883,3.145Zm6.071.828A4.7,4.7,0,0,1,90.4,5.491a4.994,4.994,0,0,1,1.38,3.725,4.613,4.613,0,0,1-1.518,3.725,4.678,4.678,0,0,1-6.9,0,4.994,4.994,0,0,1-1.38-3.725,4.994,4.994,0,0,1,1.38-3.725A4.705,4.705,0,0,1,86.954,3.973Z" transform="translate(29.768 0.304)" fill="#fff"/>
  </g>
</svg>
