<svg xmlns="http://www.w3.org/2000/svg" width="133" height="37.001" viewBox="0 0 133 37.001">
  <g id="그룹_2832" data-name="그룹 2832" transform="translate(-1062 -3917)">
    <path id="패스_25" data-name="패스 25" d="M19,.7A18.5,18.5,0,1,1,.5,19.2,18.555,18.555,0,0,1,19,.7Z" transform="translate(1061.501 3916.3)" fill="#4267b2"/>
    <path id="f" d="M20.335,28.245V20.023H23.11l.412-3.186H20.335V14.781c0-.925.309-1.542,1.645-1.542h1.747V10.361a19.951,19.951,0,0,0-2.467-.1,3.763,3.763,0,0,0-4.111,3.6v3.083H14.374v3.186h2.775v8.223Z" transform="translate(1061.501 3915.3)" fill="#fff"/>
    <circle id="타원_52" data-name="타원 52" cx="18.5" cy="18.5" r="18.5" transform="translate(1110 3917)" fill="#ed1376"/>
    <path id="인스타" d="M15.663,57.291A3.439,3.439,0,1,1,19.1,60.73a3.531,3.531,0,0,1-3.439-3.439h0m-1.775,0A5.214,5.214,0,1,0,19.1,52.078h0a5.072,5.072,0,0,0-5.214,5.213m9.429-5.546a1.22,1.22,0,1,0,1.22-1.22h0a1.231,1.231,0,0,0-1.22,1.22M15,65.61a5.179,5.179,0,0,1-1.886-.332,2.871,2.871,0,0,1-1.22-.777,4.562,4.562,0,0,1-.777-1.22,5.2,5.2,0,0,1-.332-1.886c0-1.109-.111-1.441-.111-4.1a32.757,32.757,0,0,1,.111-4.1,5.2,5.2,0,0,1,.332-1.885,2.865,2.865,0,0,1,.777-1.22,4.578,4.578,0,0,1,1.22-.777A5.18,5.18,0,0,1,15,48.972c1.109,0,1.442-.111,4.1-.111a32.748,32.748,0,0,1,4.1.111,5.174,5.174,0,0,1,1.885.333,2.874,2.874,0,0,1,1.221.777,4.584,4.584,0,0,1,.776,1.22,5.174,5.174,0,0,1,.333,1.885c0,1.11.111,1.442.111,4.1a32.738,32.738,0,0,1-.111,4.1,5.176,5.176,0,0,1-.333,1.886,3.529,3.529,0,0,1-2,2,5.174,5.174,0,0,1-1.885.332c-1.109,0-1.442.111-4.1.111s-2.995-.111-4.1-.111m-.111-18.523a8.674,8.674,0,0,0-2.44.443,3.942,3.942,0,0,0-1.775,1.22,5.53,5.53,0,0,0-1.664,4.215c0,1.11-.111,1.442-.111,4.215A34.975,34.975,0,0,0,9.008,61.4a8.652,8.652,0,0,0,.444,2.441,3.928,3.928,0,0,0,1.22,1.774,6.325,6.325,0,0,0,1.775,1.221,6.331,6.331,0,0,0,2.44.443c1.109,0,1.442.111,4.215.111a34.985,34.985,0,0,0,4.215-.111,8.68,8.68,0,0,0,2.44-.443,5.655,5.655,0,0,0,3-3A6.322,6.322,0,0,0,29.2,61.4c0-1.109.11-1.441.11-4.215a35.311,35.311,0,0,0-.11-4.215,8.652,8.652,0,0,0-.444-2.44,3.952,3.952,0,0,0-1.22-1.775,6.357,6.357,0,0,0-1.775-1.22,6.335,6.335,0,0,0-2.44-.443c-1.109,0-1.442-.111-4.215-.111a34.985,34.985,0,0,0-4.215.111" transform="translate(1109.5 3878.3)" fill="#fff"/>
    <g id="그룹_2833" data-name="그룹 2833">
      <path id="패스_4723" data-name="패스 4723" d="M46.177,36.805a18.5,18.5,0,1,1-18.5-18.5A18.5,18.5,0,0,1,46.177,36.805Z" transform="translate(1148.823 3898.697)" fill="#ed1c24"/>
      <path id="패스_4724" data-name="패스 4724" d="M36.651,42.295c0,1.176-.659,2.13-1.473,2.13H18.118c-.814,0-1.473-.954-1.473-2.13V31.645c0-1.176.659-2.13,1.473-2.13h17.06c.814,0,1.473.954,1.473,2.13Z" transform="translate(1149.932 3898.533)" fill="#f2f2f2"/>
      <path id="패스_4725" data-name="패스 4725" d="M34.908,38.764,29.6,35.385a.577.577,0,0,0-.614,0,.626.626,0,0,0-.284.528v6.758a.628.628,0,0,0,.283.528.57.57,0,0,0,.614,0l5.309-3.379a.633.633,0,0,0,0-1.055Z" transform="translate(1145.667 3896.21)" fill="#ed1c24"/>
    </g>
  </g>
</svg>
