<?xml version="1.0" encoding="utf-8"?>
<!-- Generator: Adobe Illustrator 28.1.0, SVG Export Plug-In . SVG Version: 6.00 Build 0)  -->
<!DOCTYPE svg PUBLIC "-//W3C//DTD SVG 1.1//EN" "http://www.w3.org/Graphics/SVG/1.1/DTD/svg11.dtd" [
	<!ENTITY ns_extend "http://ns.adobe.com/Extensibility/1.0/">
	<!ENTITY ns_ai "http://ns.adobe.com/AdobeIllustrator/10.0/">
	<!ENTITY ns_graphs "http://ns.adobe.com/Graphs/1.0/">
	<!ENTITY ns_vars "http://ns.adobe.com/Variables/1.0/">
	<!ENTITY ns_imrep "http://ns.adobe.com/ImageReplacement/1.0/">
	<!ENTITY ns_sfw "http://ns.adobe.com/SaveForWeb/1.0/">
	<!ENTITY ns_custom "http://ns.adobe.com/GenericCustomNamespace/1.0/">
	<!ENTITY ns_adobe_xpath "http://ns.adobe.com/XPath/1.0/">
]>
<svg version="1.1" id="Layer_1" xmlns:x="&ns_extend;" xmlns:i="&ns_ai;" xmlns:graph="&ns_graphs;"
	 xmlns="http://www.w3.org/2000/svg" xmlns:xlink="http://www.w3.org/1999/xlink" x="0px" y="0px" width="90px" height="90px"
	 viewBox="0 0 90 90" style="enable-background:new 0 0 90 90;" xml:space="preserve">
<style type="text/css">
	.st0{fill:#E34436;}
	.st1{fill:#641D0C;}
	.st2{fill:#EB866B;}
	.st3{fill:#E55742;}
</style>
<metadata>
	<sfw  xmlns="&ns_sfw;">
		<slices></slices>
		<sliceSourceBounds  bottomLeftOrigin="true" height="86.387" width="80" x="5" y="1.806"></sliceSourceBounds>
		<optimizationSettings>
			<targetSettings  fileFormat="PNG8Format" targetSettingsID="0">
				
					<PNG8Format  autoReduce="false" ditherAlgorithm="diffusion" ditherPercent="100" interlaced="false" matteColor="#FFFFFF" noMatteColor="false" numColors="256" reductionAlgorithm="perceptual" rolloverMasterPalette="false" transparency="true" webShiftPercent="0">
					<colorTable  isExact="false"></colorTable>
					<lockedColors></lockedColors>
					<colorShiftEntries></colorShiftEntries>
				</PNG8Format>
			</targetSettings>
		</optimizationSettings>
	</sfw>
</metadata>
<path class="st0" d="M63.543,12.879L36.715,2.311l-1.28-0.504c-0.208,0.004-0.419,0.039-0.624,0.119l-4.567,1.799L7.001,12.88
	c-0.921,0.363-1.372,1.403-1.011,2.324l0.125,0.316c0.363,0.921,1.403,1.374,2.324,1.011l26.835-10.57l26.831,10.568
	c0.921,0.363,1.961-0.09,2.323-1.011l0.125-0.316C64.916,14.282,64.463,13.242,63.543,12.879"/>
<path class="st1" d="M23.428,55.384h-0.33c0.639-1.525,0.969-3.319,0.969-5.937v-1.524c0-2.144-0.824-2.968-3.092-2.968H8.36
	c-1.072,0-1.649,0.742-1.649,1.649s0.577,1.649,1.649,1.649h11.131c0.33,0,0.474,0.185,0.474,0.474v1.442H8.133
	c-1.072,0-1.669,0.722-1.669,1.628c0,0.907,0.597,1.628,1.669,1.628h11.585c-0.124,0.722-0.289,1.361-0.516,1.959H7.597
	c-1.258,0-1.732,0.866-1.732,1.69c0,0.845,0.495,1.669,1.732,1.669h2.638v0.825c0,1.134-0.556,1.711-1.34,1.793
	c-0.824,0.082-1.298,0.556-1.34,1.319c-0.041,0.804,0.495,1.34,1.196,1.546c0.35,0.103,0.763,0.124,1.072,0.124
	c2.247-0.021,4.432-1.588,4.432-4.7v-0.907h3.298v5.236h4.184v-5.236h1.691c1.237,0,1.732-0.824,1.732-1.669
	C25.16,56.25,24.686,55.384,23.428,55.384z"/>
<path class="st1" d="M37.486,59.61h-6.328c-0.371,0-0.536-0.123-0.536-0.597v-3.278h5.524c1.175,0,1.649-0.845,1.649-1.69
	c0-0.866-0.453-1.711-1.649-1.711h-5.524v-3.01c0-0.474,0.165-0.597,0.536-0.597h5.483c1.175,0,1.546-0.948,1.546-1.752
	c0-0.783-0.35-1.732-1.546-1.732h-6.967c-2.68,0-3.175,0.619-3.175,3.195v11.399c0,2.577,0.495,3.216,3.175,3.216h7.812v0
	c1.175,0,1.546-0.907,1.546-1.711C39.032,60.559,38.682,59.61,37.486,59.61z"/>
<path class="st1" d="M63.418,60.126h-5.813v-2.907h5.277c1.134,0,1.587-0.804,1.587-1.587c0-0.763-0.433-1.608-1.587-1.608H51.709
	c-0.474,0-0.701-0.185-0.701-0.577v-0.103c0-0.392,0.227-0.577,0.701-0.577h12.285v-4.37c0-1.958-0.804-3.257-3.649-3.257H48.411
	c-0.99,0-1.588,0.825-1.588,1.649c0,0.845,0.598,1.649,1.588,1.649h10.781c0.474,0,0.556,0.309,0.556,0.577v0.618h-9.049
	c-2.721,0-4.102,1.402-4.102,3.607v0.392c0,2.206,1.381,3.587,4.102,3.587h2.7v2.907h-5.812c-1.257,0-1.732,0.845-1.732,1.669
	c0,0.846,0.495,1.67,1.732,1.67h15.831c1.237,0,1.732-0.824,1.732-1.67C65.15,60.971,64.676,60.126,63.418,60.126z"/>
<path class="st1" d="M42.536,44.522c-1.092,0-2.061,0.701-2.061,2.04v17.315h4.123V46.562
	C44.598,45.222,43.629,44.522,42.536,44.522z"/>
<path class="st1" d="M22.788,32.2H7.558c-1.229,0-1.693,0.846-1.693,1.652c0,0.826,0.484,1.632,1.693,1.632h5.681v4.613h4.11v-4.613
	h5.439c1.208,0,1.692-0.806,1.692-1.632C24.48,33.046,24.016,32.2,22.788,32.2z"/>
<path class="st1" d="M36.689,33.188c1.027,0,1.41-0.806,1.41-1.511c0-0.725-0.423-1.551-1.41-1.551h-6.447
	c-0.383,0-0.624-0.182-0.624-0.524V29.42c0-0.342,0.242-0.564,0.624-0.564h6.205v-4.513c0-1.591-0.866-2.679-3.022-2.679h-6.447
	c-0.987,0-1.43,0.805-1.43,1.551c0,0.685,0.423,1.511,1.43,1.511h4.915c0.383,0,0.504,0.08,0.504,0.423v0.867h-3.586
	c-2.136,0-3.365,1.39-3.365,3.183v0.484c0,1.772,1.249,3.505,3.365,3.505H36.689z"/>
<path class="st1" d="M10.096,30.749h12.107c1.109,0,1.571-0.886,1.571-1.652c0-0.746-0.443-1.632-1.571-1.632H11.527
	c-0.423,0-0.564-0.141-0.564-0.564V25.35c0-0.423,0.141-0.544,0.564-0.544h10.355c1.128,0,1.551-0.866,1.551-1.632
	s-0.403-1.652-1.551-1.652H10.096v0.001c-2.418,0-3.243,0.866-3.243,3.183v2.84C6.853,29.883,7.679,30.749,10.096,30.749z"/>
<path class="st1" d="M62.516,36.33h-5.68v-3.888h4.834c1.149,0,1.612-0.926,1.612-1.752c0-0.806-0.443-1.693-1.612-1.693H51.113
	c-0.464,0-0.585-0.1-0.585-0.564v-4.834c0-1.33-0.926-1.955-2.034-1.955c-1.088,0-2.075,0.605-2.075,1.955V29.3
	c0,2.296,0.685,3.142,3.083,3.142h3.223v3.888h-5.68c-1.229,0-1.693,0.826-1.693,1.632c0,0.826,0.484,1.632,1.693,1.632h15.471
	c1.209,0,1.693-0.806,1.693-1.632C64.209,37.156,63.745,36.33,62.516,36.33z"/>
<path class="st1" d="M41.765,36.875H31.209c-0.443,0-0.544-0.06-0.544-0.503v-0.605c0-1.35-0.887-1.894-2.015-1.894
	c-1.128,0-2.075,0.524-2.075,1.894v1.289c0,2.156,0.605,2.941,2.861,2.941h12.329c1.209,0,1.692-0.746,1.692-1.571
	C43.457,37.62,42.994,36.875,41.765,36.875z"/>
<path class="st1" d="M43.396,26.117h-0.624v-3.042c0-1.289-0.926-1.995-1.974-1.995c-1.068,0-1.975,0.685-1.975,1.995v12.248h3.949
	v-5.701h0.624c1.209,0,1.592-0.927,1.592-1.753C44.988,27.063,44.626,26.117,43.396,26.117z"/>
<path class="st0" d="M37.342,74.238c0,0.845,0.412,1.67,1.649,1.67h1.175v3.731h4.102v-8.864c0-1.299-1.01-1.999-2.061-1.999
	c-1.072,0-2.041,0.68-2.041,1.999v1.794h-1.175C37.734,72.569,37.342,73.414,37.342,74.238z"/>
<path class="st0" d="M32.539,77.084c1.175-0.02,1.896,0.866,1.793,2.412h3.834c0.062-3.546-1.402-5.194-4.494-5.339
	c0.041-0.33,0.062-0.68,0.062-1.031v-0.392h2.804c0.969,0,1.505-0.907,1.505-1.649s-0.453-1.669-1.505-1.669h-9.214
	c-1.051,0-1.505,0.927-1.505,1.669c0,0.742,0.536,1.649,1.505,1.649h2.494v0.392c0,1.732-1.031,3.03-2.886,3.339
	c-0.824,0.144-1.298,0.742-1.257,1.711c0.041,0.927,0.887,1.546,1.896,1.505C29.467,79.619,31.364,78.733,32.539,77.084z"/>
<path class="st0" d="M23.531,75.992h-0.68v-5.215c0-1.299-0.99-2-2.041-2c-1.072,0-2.04,0.68-2.04,2v17.355h4.081v-8.554h0.68
	c1.237,0,1.628-0.948,1.628-1.793C25.159,76.961,24.788,75.992,23.531,75.992z"/>
<path class="st0" d="M13.04,69.559H6.979c-1.258,0-1.732,0.948-1.732,1.773c0,0.845,0.495,1.793,1.732,1.793h4.7
	c0.33,0,0.516,0.226,0.516,0.515v3.442c-0.001,5.072-2.433,6.391-5.67,6.803C5.495,84.009,5,84.669,5,85.535
	c0,1.216,0.969,1.814,1.979,1.773c5.339-0.268,9.297-2.906,9.297-10.204v-4.535C16.276,70.652,15.369,69.559,13.04,69.559z"/>
<path class="st0" d="M40.248,80.361h-9.235c-2.865,0-4.226,1.732-4.226,3.937c0,2.226,1.361,3.896,4.226,3.896h9.235
	c2.824,0,4.226-1.628,4.226-3.896C44.474,82.051,43.072,80.361,40.248,80.361z M39.157,85.328h-7.05
	c-0.907,0-1.134-0.577-1.134-1.031s0.226-0.99,1.134-0.99h7.05c0.907,0,1.134,0.536,1.134,0.99
	C40.291,84.75,40.064,85.328,39.157,85.328z"/>
<path class="st0" d="M58.636,68.776c-0.948,0-1.773,0.557-1.773,1.711v2.577h-1.628c-0.35-2.556-1.855-3.813-4.349-3.813
	c-2.886,0-4.514,1.669-4.514,5.07v8.431c0,3.401,1.628,5.071,4.514,5.071c2.721,0,4.225-1.484,4.411-4.494h1.567v4.803h3.524V70.487
	C60.388,69.353,59.564,68.776,58.636,68.776z M51.751,83.494c0,0.886-0.433,1.154-0.866,1.154s-0.845-0.268-0.845-1.154v-9.915
	c0-0.866,0.412-1.154,0.845-1.154s0.866,0.289,0.866,1.154V83.494z M56.863,80.01h-1.546v-3.628h1.546V80.01z"/>
<path class="st0" d="M73.724,69.477c-1.092,0-1.814,0.556-1.814,1.896v3.236h-1.855v-3.236c0-1.319-0.701-1.896-1.794-1.896
	c-1.113,0-1.876,0.556-1.876,1.896V84.36c0,2.103,0.556,2.865,2.762,2.865h6.391V71.373C75.538,70.054,74.837,69.477,73.724,69.477z
	 M71.91,84.133h-1.319c-0.453,0-0.536-0.062-0.536-0.494v-5.793h1.855V84.133z"/>
<path class="st0" d="M83.165,68.776c-0.948,0-1.835,0.598-1.835,1.752v5.71h-1.01v-5.71c0-1.134-0.866-1.752-1.793-1.752
	c-0.948,0-1.793,0.598-1.793,1.752v17.604h3.587v-8.513h1.01v8.513H85V70.528C85,69.394,84.093,68.776,83.165,68.776z"/>
<path class="st0" d="M63.191,68.776c-0.948,0-1.814,0.598-1.814,1.752v17.604h3.628V70.528
	C65.005,69.394,64.118,68.776,63.191,68.776z"/>
<path class="st2" d="M80.373,56.047c-0.103,0.473-0.238,0.94-0.404,1.394c-0.16,0.436-0.373,0.842-0.461,1.302
	c0.455-0.31,0.871-0.667,1.383-0.884c0.643-0.272,1.345-0.375,2.041-0.419c0.553-0.035,1.158-0.018,1.59,0.331
	c0.589,0.475,0.603,1.422,0.207,2.066c-0.397,0.644-1.097,1.036-1.797,1.319c-1.235,0.499-2.557,0.744-3.804,1.211
	s-2.468,1.214-3.085,2.393c0.074-1.993,0.149-3.985,0.223-5.978c0.056-1.512,0.14-3.112,0.98-4.371
	c0.27-0.405,0.624-0.769,1.067-0.972c0.444-0.202,0.985-0.224,1.407,0.02c0.413,0.239,0.662,0.699,0.742,1.169
	C80.544,55.098,80.474,55.581,80.373,56.047"/>
<path class="st3" d="M73.973,54.562c-0.278,0-0.561,0.095-0.784,0.253c-0.462,0.326-0.668,0.893-0.736,1.435
	c-0.139,1.102,0.2,2.229,0.436,3.296c0.268,1.207,0.553,2.412,0.797,3.624c0.039,0.194,0.235,0.311,0.425,0.311
	c0.112,0,0.222-0.04,0.297-0.128c0.32-0.377,0.64-0.76,0.999-1.102c0.336-0.322,0.714-0.567,1.121-0.788
	c0.752-0.407,1.522-0.786,2.025-1.508c0.453-0.649,0.582-1.618-0.154-2.118c-0.272-0.185-0.589-0.266-0.909-0.266
	c-0.422,0-0.851,0.14-1.197,0.37c-0.444,0.295-0.76,0.725-0.965,1.206c0.02-0.574,0.02-1.15-0.013-1.725
	c-0.03-0.529-0.071-1.064-0.16-1.586c-0.078-0.461-0.256-0.941-0.701-1.163C74.303,54.596,74.139,54.562,73.973,54.562
	 M74.145,61.353c-0.141-0.627-0.278-1.256-0.42-1.883c-0.205-0.907-0.478-1.833-0.483-2.77c-0.002-0.422,0.003-0.958,0.328-1.276
	c0.123-0.12,0.266-0.181,0.402-0.181c0.18,0,0.347,0.105,0.441,0.315c0.168,0.376,0.17,0.845,0.206,1.248
	c0.043,0.482,0.066,0.966,0.071,1.451c0.01,0.957-0.053,1.912-0.19,2.859c-0.019,0.129,0.021,0.23,0.089,0.298
	c-0.038,0.02-0.081,0.04-0.115,0.04l-0.005-0.006c-0.07-0.074-0.156-0.105-0.241-0.105C74.2,61.344,74.173,61.348,74.145,61.353
	 M76.11,59.282c0.227-0.403,0.558-0.729,1.043-0.826c0.069-0.014,0.158-0.023,0.253-0.023c0.245,0,0.528,0.062,0.613,0.27
	c0.107,0.262-0.116,0.63-0.268,0.824c-0.265,0.338-0.616,0.578-0.99,0.789c0.397-0.422,0.792-0.845,1.181-1.275
	c0.215-0.237,0.018-0.538-0.241-0.538c-0.05,0-0.102,0.011-0.153,0.036C77.059,58.772,76.563,59.003,76.11,59.282"/>
</svg>
