<?xml version="1.0" encoding="utf-8"?>
<!-- Generator: Adobe Illustrator 23.0.2, SVG Export Plug-In . SVG Version: 6.00 Build 0)  -->
<svg version="1.1" id="레이어_1" xmlns="http://www.w3.org/2000/svg" xmlns:xlink="http://www.w3.org/1999/xlink" x="0px"
	 y="0px" width="56px" height="559.5px" viewBox="0 0 56 559.5" style="enable-background:new 0 0 56 559.5;" xml:space="preserve">
<style type="text/css">
	.st0{fill:#4267B2;}
	.st1{fill:#FFFFFF;}
	.st2{fill:#ED1376;}
	.st3{fill:none;}
	.st4{fill:#555555;}
	.st5{opacity:0.8;}
	.st6{fill:#767676;}
	.st7{fill:#6582C8;}
	.st8{fill:#777777;}
	.st9{fill:#A2B1D4;}
	.st10{fill:#C1C8D9;}
	.st11{opacity:0.8;fill:#E1E1E1;enable-background:new    ;}
	.st12{opacity:0.5;enable-background:new    ;}
	.st13{opacity:0.6;fill:#FFFFFF;enable-background:new    ;}
	.st14{opacity:0.7;fill:#333333;enable-background:new    ;}
	.st15{fill:none;stroke:#FFFFFF;stroke-width:1.5;}
	.st16{fill:#CCCCCC;}
</style>
<g>
	<path id="패스_25_1_" class="st0" d="M19,0.7c10.2,0,18.5,8.3,18.5,18.5S29.2,37.7,19,37.7S0.5,29.4,0.5,19.2S8.8,0.7,19,0.7z"/>
	<path id="f" class="st1" d="M20.3,28.2V20h2.8l0.4-3.2h-3.2v-2.1c0-0.9,0.3-1.5,1.6-1.5h1.7v-2.9c-0.8-0.1-1.6-0.1-2.5-0.1
		c-2.2-0.2-4,1.4-4.1,3.6c0,0.2,0,0.4,0,0.7v2.4h-2.8v3.2H17v8.2L20.3,28.2z"/>
</g>
<g>
	<circle id="타원_52" class="st2" cx="19" cy="57.2" r="18.5"/>
	<path id="인스타" class="st1" d="M15.7,57.3c0-1.9,1.6-3.4,3.4-3.4c1.9,0,3.4,1.6,3.4,3.4c0,1.9-1.6,3.4-3.4,3.4
		C17.2,60.6,15.7,59.2,15.7,57.3L15.7,57.3 M13.9,57.3c0,2.9,2.3,5.2,5.2,5.2s5.2-2.3,5.2-5.2s-2.3-5.2-5.2-5.2l0,0
		C16.2,52,13.9,54.3,13.9,57.3 M23.3,51.7c0,0.7,0.6,1.2,1.2,1.2c0.7,0,1.2-0.6,1.2-1.2s-0.6-1.2-1.2-1.2l0,0l0,0
		C23.9,50.5,23.3,51.1,23.3,51.7 M15,65.6c-0.7,0-1.3-0.1-1.9-0.3c-0.4-0.1-0.9-0.4-1.2-0.8c-0.3-0.3-0.6-0.8-0.8-1.2
		c-0.2-0.6-0.3-1.2-0.3-1.9c0-1.1-0.1-1.4-0.1-4.1c0-2.7,0-3.1,0.1-4.1c0-0.7,0.1-1.3,0.3-1.9c0.1-0.4,0.4-0.9,0.8-1.2
		c0.3-0.3,0.8-0.6,1.2-0.8c0.6-0.2,1.2-0.3,1.9-0.3c1.1,0,1.4-0.1,4.1-0.1s3.1,0,4.1,0.1c0.7,0,1.3,0.1,1.9,0.3
		c0.4,0.1,0.9,0.4,1.2,0.8c0.3,0.3,0.6,0.8,0.8,1.2c0.2,0.6,0.3,1.2,0.3,1.9c0,1.1,0.1,1.4,0.1,4.1c0,2.7,0,3.1-0.1,4.1
		c0,0.7-0.1,1.3-0.3,1.9c-0.3,0.9-1,1.6-2,2c-0.6,0.2-1.2,0.3-1.9,0.3c-1.1,0-1.4,0.1-4.1,0.1S16.1,65.6,15,65.6 M14.9,47.1
		c-0.9,0-1.7,0.2-2.4,0.4s-1.3,0.7-1.8,1.2c-0.6,0.6-0.9,1.1-1.2,1.8C9.1,51.3,9,52.2,9,53c0,1.1-0.1,1.4-0.1,4.2s0,3.1,0.1,4.2
		c0,0.9,0.2,1.7,0.4,2.4c0.2,0.7,0.7,1.3,1.2,1.8c0.6,0.6,1.1,0.9,1.8,1.2c0.8,0.3,1.7,0.4,2.4,0.4c1.1,0,1.4,0.1,4.2,0.1
		s3.1,0,4.2-0.1c0.9,0,1.7-0.2,2.4-0.4c1.3-0.6,2.4-1.7,3-3c0.3-0.8,0.4-1.7,0.4-2.4c0-1.1,0.1-1.4,0.1-4.2s0-3.1-0.1-4.2
		c0-0.9-0.2-1.7-0.4-2.4c-0.2-0.7-0.7-1.3-1.2-1.8c-0.6-0.6-1.1-0.9-1.8-1.2c-0.8-0.3-1.7-0.4-2.4-0.4c-1.1,0-1.4-0.1-4.2-0.1
		S16,47,14.9,47.1"/>
</g>
<g>
	<g>
		<rect y="104" class="st3" width="28" height="28"/>
	</g>
	<g>
		<path class="st4" d="M5,107.2c-0.1,0-0.3,0-0.4,0c-2.5,0-4,0.2-4.2,1.4c-0.1,0.5,0.2,0.8,0.4,1.2c0.4,0.7,1.3,2,1.4,5.8
			c0.1,3.1,0.9,5.9,2.3,7.9c1.5,2.2,3.9,3.3,6.6,3.3c0.1,0,0.1,0,0.1,0c1.2,0,2.4-0.3,3.4-0.8c0,0.1,0,0.2,0,0.3c0,0.7,0,1.2,0,1.8
			c0,0.4,0.3,0.7,0.7,0.7c0.5,0,0.8-0.3,0.8-0.8c0-0.6,0-1.1,0-1.7c0-0.4,0-0.8,0-1.2c2-1.5,3.3-4,3.3-6.7
			C19.3,111.8,13.4,107.2,5,107.2z M16,123.3c-0.3-2.1-1.3-4.4-4.2-6.3c-0.3-0.2-0.8-0.1-1,0.2c-0.2,0.3-0.1,0.8,0.2,1
			c2.9,1.9,3.5,3.9,3.6,6.1c-1,0.6-2.1,0.9-3.3,0.9c-2.4,0-4.2-0.8-5.5-2.7c-1.2-1.8-2-4.3-2-7.1c-0.1-4.1-1.1-5.8-1.6-6.6
			c0.6-0.1,2-0.1,2.5-0.1c0.1,0,0.3,0,0.4,0c7.6,0.1,12.9,4,13,9.7C18,120.3,17.2,122,16,123.3z"/>
		<path class="st4" d="M27.5,121.5c-0.1-0.4-0.5-0.7-0.9-0.6c-0.7,0.1-1.4,0.1-2.1-0.2c0.3-0.6,0.6-1.3,1-1.8c0.2-0.3,0.1-0.8-0.2-1
			s-0.8-0.1-1,0.2c-0.4,0.6-0.8,1.3-1.1,2c-0.4-0.3-0.8-0.7-1.1-1.2c-0.2-0.4-0.6-0.5-1-0.3s-0.5,0.6-0.3,1c0.5,0.8,1.2,1.4,1.9,1.9
			c-0.5,2-0.4,4.2,0.4,6.2c0.1,0.3,0.4,0.5,0.7,0.5c0.1,0,0.2,0,0.3-0.2c0.4-0.2,0.6-0.6,0.4-1c-0.6-1.6-0.8-3.3-0.4-4.9
			c0.6,0.2,1.1,0.3,1.7,0.3c0.4,0,0.8-0.1,1.1,0C27.3,122.3,27.6,121.9,27.5,121.5z"/>
	</g>
</g>
<g>
	<g>
		<rect y="76" class="st3" width="28" height="28"/>
	</g>
	<g>
		<path class="st1" d="M17.9,84.7c0.3-0.3,0.3-0.8,0-1.1s-0.8-0.3-1.1,0l-4.1,4.1l-1.8-1.8c-0.3-0.3-0.8-0.3-1.1,0s-0.3,0.8,0,1.1
			l2.3,2.3c0.1,0.1,0.3,0.2,0.5,0.2s0.4-0.1,0.7-0.2L17.9,84.7z"/>
		<path class="st1" d="M25.3,88.4c-0.3-0.1-0.6-0.1-0.8,0l-1.2,0.7V81c0-1.1-0.9-1.9-1.9-1.9H6.7c-1.1,0-1.9,0.9-1.9,1.9v8.2
			l-1.5-0.8c-0.2-0.1-0.5-0.1-0.7,0c-0.3,0.1-0.4,0.3-0.4,0.6v11.1c0,0.5,0.4,0.8,0.8,0.8h22c0.4,0,0.8-0.3,0.8-0.7V89.1
			C25.8,88.8,25.5,88.5,25.3,88.4z M6,81c0-0.2,0.2-0.4,0.4-0.4h14.8c0.2,0,0.4,0.2,0.4,0.4v9l-7.5,4.6L6,89.9V81z M24.3,99.4H3.8
			H3.6v-9.1L8.4,93l5.8,3.3l0.2-0.1c0.1,0,0.2,0,0.3-0.1l9.5-5.7L24.3,99.4L24.3,99.4z"/>
	</g>
</g>
<g>
	<g id="로그인" transform="translate(0.75 0.75)" class="st5">
		<path class="st4" d="M17.6,142.8l-5.2-5.2c-0.3-0.3-0.8-0.3-1.1,0s-0.3,0.8,0,1.1l3.7,3.7H0.9c-0.5,0-0.8,0.3-0.8,0.8
			s0.4,0.8,0.8,0.8h14.4l-4,4c-0.3,0.3-0.3,0.8,0,1.1c0.1,0.1,0.3,0.2,0.5,0.2s0.4-0.1,0.6-0.2l5.2-5.2
			C17.9,143.6,17.9,143.1,17.6,142.8z"/>
		<path class="st4" d="M11.1,154.7c-1.7,0-3.3-0.4-4.8-1.1c-2.7-1.3-4.7-3.6-5.7-6.4c-0.1-0.4,0.1-0.8,0.5-1c0.4-0.1,0.8,0.1,1,0.5
			c0.8,2.4,2.6,4.4,4.9,5.5s4.9,1.3,7.4,0.4c5-1.8,7.7-7.3,5.9-12.3c-0.8-2.4-2.6-4.4-4.9-5.5s-4.9-1.3-7.4-0.4
			c-2.8,1-5,3.1-5.9,5.9c-0.1,0.4-0.6,0.6-1,0.5s-0.6-0.6-0.5-1c1.1-3.2,3.6-5.7,6.9-6.9c2.8-1,5.8-0.8,8.5,0.5s4.7,3.6,5.7,6.4
			c2,5.8-1.1,12.2-6.9,14.2C13.5,154.5,12.3,154.7,11.1,154.7z"/>
	</g>
	<g>
		<rect y="132.3" class="st3" width="24" height="24"/>
	</g>
</g>
<g>
	<path class="st6" d="M18.5,171.7c-0.3-0.3-0.5-0.6-0.8-0.8c-1.1-1-2.3-1.6-3.7-1.9c2.1-0.9,3.6-2.9,3.6-5.4c0-3.2-2.6-5.8-5.8-5.8
		S6,160.4,6,163.6c0,2.4,1.5,4.5,3.5,5.3c-1.7,0.4-3.2,1.3-4.3,2.7c-1.8,2-2.7,4.5-2.7,7.1l0.8,0.7h17l0.8-0.6
		C21.3,176.1,20.3,173.6,18.5,171.7z M7.6,163.7c0-2.4,1.9-4.3,4.3-4.3s4.3,1.9,4.3,4.3c0,2.4-1.9,4.3-4.3,4.3S7.6,166.1,7.6,163.7z
		 M4.3,177.9c0.1-2,0.9-3.8,2.3-5.3c1.3-1.4,3.1-2.3,5-2.4c2-0.1,3.8,0.5,5.3,1.8c0.2,0.2,0.4,0.4,0.6,0.6c1.4,1.5,2.2,3.3,2.3,5.3
		L4.3,177.9L4.3,177.9z"/>
	<g>
		<rect y="156.3" class="st3" width="24" height="24"/>
	</g>
</g>
<g>
	<path class="st6" d="M22.8,183.3h-4.3v-1.7c0-0.5-0.3-0.8-0.8-0.8s-0.8,0.4-0.8,0.8v1.7h-4v-1.7c0-0.5-0.3-0.8-0.8-0.8
		s-0.8,0.4-0.8,0.8v1.7H7.2v-1.7c0-0.5-0.2-0.8-0.7-0.8s-0.8,0.4-0.8,0.8v1.7H1c-0.5,0-0.8,0.4-0.8,0.8v18.3c0,0.5,0.4,0.8,0.8,0.8
		h21.7c0.4,0,0.8-0.3,0.8-0.8V184C23.5,183.5,23.2,183.3,22.8,183.3z M5.7,184.8v1.1c0,0.5,0.4,0.8,0.8,0.8s0.8-0.3,0.7-0.8v-1.1
		h4.1v1.1c0,0.5,0.4,0.8,0.8,0.8s0.7-0.3,0.8-0.8v-1.1h4v1.1c0,0.5,0.4,0.8,0.8,0.8s0.7-0.3,0.8-0.8v-1.1H22v3.6H1.8v-3.6H5.7z
		 M1.8,201.6V190H22v11.6H1.8z"/>
	<g>
		<rect y="180" class="st3" width="24" height="24"/>
	</g>
</g>
<g>
	<g>
		<path class="st7" d="M40.1,144.8l-4,4c-0.3,0.3-0.3,0.8,0,1.1c0.1,0.1,0.3,0.2,0.5,0.2s0.4-0.1,0.6-0.2l5.2-5.2
			c0.3-0.3,0.3-0.8,0-1.1l-5.2-5.2c-0.3-0.3-0.8-0.3-1.1,0s-0.3,0.8,0,1.1l3.7,3.7H25.7c-0.5,0-0.8,0.3-0.8,0.8s0.4,0.8,0.8,0.8
			L40.1,144.8L40.1,144.8z"/>
		<path class="st7" d="M46.5,140.5c-1-2.8-3-5.1-5.7-6.4c-2.7-1.3-5.7-1.5-8.5-0.5c-3.3,1.2-5.8,3.7-6.9,6.9c-0.1,0.4,0.1,0.9,0.5,1
			s0.9-0.1,1-0.5c0.9-2.8,3.1-4.9,5.9-5.9c2.5-0.9,5.1-0.7,7.4,0.4c2.3,1.1,4.1,3.1,4.9,5.5c1.8,5-0.9,10.5-5.9,12.3
			c-2.5,0.9-5.1,0.7-7.4-0.4c-2.3-1.1-4.1-3.1-4.9-5.5c-0.2-0.4-0.6-0.6-1-0.5c-0.4,0.2-0.6,0.6-0.5,1c1,2.8,3,5.1,5.7,6.4
			c1.5,0.7,3.1,1.1,4.8,1.1c1.2,0,2.4-0.2,3.7-0.7C45.4,152.8,48.5,146.3,46.5,140.5z"/>
	</g>
	<g>
		<rect x="24.1" y="132.3" class="st3" width="24" height="24"/>
	</g>
</g>
<g>
	<path class="st7" d="M42.6,171.7c-0.3-0.3-0.5-0.6-0.8-0.8c-1.1-1-2.3-1.6-3.7-1.9c2.1-0.9,3.6-2.9,3.6-5.4c0-3.2-2.6-5.8-5.8-5.8
		s-5.8,2.6-5.8,5.8c0,2.4,1.5,4.5,3.5,5.3c-1.7,0.4-3.2,1.3-4.3,2.7c-1.8,2-2.7,4.5-2.7,7.1l0.8,0.7h17l0.8-0.6
		C45.3,176.1,44.4,173.6,42.6,171.7z M31.7,163.7c0-2.4,1.9-4.3,4.3-4.3s4.3,1.9,4.3,4.3c0,2.4-1.9,4.3-4.3,4.3
		S31.7,166.1,31.7,163.7z M28.3,177.9c0.1-2,0.9-3.8,2.3-5.3c1.3-1.4,3.1-2.3,5-2.4c2-0.1,3.8,0.5,5.3,1.8c0.2,0.2,0.4,0.4,0.6,0.6
		c1.4,1.5,2.2,3.3,2.3,5.3L28.3,177.9L28.3,177.9z"/>
	<g>
		<rect x="24.1" y="156.3" class="st3" width="24" height="24"/>
	</g>
</g>
<g>
	<path class="st7" d="M46.8,183.3h-4.3v-1.7c0-0.5-0.3-0.8-0.8-0.8s-0.8,0.4-0.8,0.8v1.7h-4v-1.7c0-0.5-0.3-0.8-0.8-0.8
		s-0.8,0.4-0.8,0.8v1.7h-4.1v-1.7c0-0.5-0.2-0.8-0.7-0.8s-0.8,0.4-0.8,0.8v1.7h-4.6c-0.5,0-0.8,0.4-0.8,0.8v18.3
		c0,0.5,0.4,0.8,0.8,0.8h21.7c0.4,0,0.8-0.3,0.8-0.8V184C47.6,183.5,47.2,183.3,46.8,183.3z M29.7,184.8v1.1c0,0.5,0.4,0.8,0.8,0.8
		s0.8-0.3,0.7-0.8v-1.1h4.1v1.1c0,0.5,0.4,0.8,0.8,0.8c0.4,0,0.7-0.3,0.8-0.8v-1.1h4v1.1c0,0.5,0.4,0.8,0.8,0.8
		c0.4,0,0.7-0.3,0.8-0.8v-1.1h3.6v3.6H25.9v-3.6H29.7z M25.9,201.6V190h20.2v11.6H25.9z"/>
	<g>
		<rect x="24.1" y="180" class="st3" width="24" height="24"/>
	</g>
</g>
<g>
	<g>
		<rect y="231" class="st3" width="27" height="27"/>
	</g>
	<g id="원화살표" transform="translate(-530 -575)" class="st5">
		<g id="그룹_631" transform="translate(540.9 581.812)">
			<path class="st4" d="M6.6,238.4c-0.2,0-0.4-0.1-0.5-0.2l-6-6c-0.3-0.3-0.3-0.8,0-1.1s0.8-0.3,1.1,0l6,6c0.3,0.3,0.3,0.8,0,1.1
				C7,238.3,6.8,238.4,6.6,238.4z"/>
			<path class="st4" d="M0.6,244.3c-0.2,0-0.4-0.1-0.5-0.2c-0.3-0.3-0.3-0.8,0-1.1l6-6c0.3-0.3,0.8-0.3,1.1,0s0.3,0.8,0,1.1l-6,6
				C1,244.3,0.8,244.3,0.6,244.3z"/>
		</g>
		<g id="타원_104" transform="translate(530 575)">
			
				<ellipse transform="matrix(0.9959 -9.075608e-02 9.075608e-02 0.9959 -22.1334 2.2341)" class="st3" cx="13.5" cy="244.5" rx="12.8" ry="12.8"/>
			<path class="st4" d="M13.5,257.3c-7.1,0-12.8-5.8-12.8-12.8c0-7.1,5.8-12.8,12.8-12.8c7.1,0,12.8,5.8,12.8,12.8
				C26.3,251.6,20.5,257.3,13.5,257.3z M13.5,233.2c-6.2,0-11.3,5.1-11.3,11.3s5.1,11.3,11.3,11.3s11.3-5.1,11.3-11.3
				S19.7,233.2,13.5,233.2z"/>
		</g>
	</g>
</g>
<g>
	<g>
		<rect y="258" class="st3" width="27" height="27"/>
	</g>
	<g id="플러스" transform="translate(-620.5 -2130.5)">
		<rect x="633.2" y="2389" class="st8" width="1.5" height="26"/>
		<rect x="621" y="2401.3" class="st8" width="26" height="1.5"/>
	</g>
</g>
<g>
	<g>
		<rect y="285" class="st3" width="27" height="27"/>
	</g>
	<g id="시계" transform="translate(-199 -999)">
		<g id="타원_39" transform="translate(199 999)">
			<circle class="st1" cx="13.5" cy="298.5" r="11"/>
			<path class="st9" d="M13.5,309.5c-6.1,0-11-4.9-11-11s4.9-11,11-11s11,4.9,11,11S19.5,309.5,13.5,309.5z M13.5,289.5
				c-5,0-9,4-9,9s4,9,9,9s9-4,9-9S18.4,289.5,13.5,289.5z"/>
		</g>
		<g id="그룹_51" transform="translate(209 1003)">
			<g id="그룹_49">
				<path id="패스_273" class="st10" d="M3,296c-0.3,0-0.6-0.3-0.6-0.6v-7.3c0-0.3,0.3-0.6,0.6-0.6s0.6,0.3,0.6,0.6v7.3
					C3.6,295.7,3.4,296,3,296z"/>
			</g>
			<g id="그룹_50" transform="translate(0 7.34)">
				<path id="패스_274" class="st10" d="M8.5,288.7H3c-0.3,0-0.6-0.3-0.6-0.6c0-0.3,0.3-0.6,0.6-0.6h5.5c0.3,0,0.6,0.3,0.6,0.6
					C9.1,288.4,8.9,288.7,8.5,288.7L8.5,288.7z"/>
			</g>
		</g>
	</g>
</g>
<g>
	<g>
		<rect y="204" class="st3" width="27" height="27"/>
	</g>
	<g id="닫기버튼" transform="translate(1084.231 -1947.635) rotate(45)">
		<g id="사각형_1155" transform="translate(610.519 2143.854) rotate(-45)">
			<rect x="0.5" y="204.5" class="st3" width="26" height="26"/>
			<path class="st8" d="M26.5,230.5h-26v-26h26V230.5z M1.5,229.5h24v-24h-24V229.5z"/>
		</g>
		
			<rect x="764.1" y="2287.2" transform="matrix(-0.7071 0.7071 -0.7071 -0.7071 2939.1125 3357.9661)" class="st8" width="20" height="1"/>
		
			<rect x="773.6" y="2277.7" transform="matrix(-0.7071 0.7071 -0.7071 -0.7071 2939.1311 3357.9609)" class="st8" width="1" height="20"/>
	</g>
</g>
<g>
	<g>
		<rect y="312" class="st3" width="15" height="15"/>
	</g>
	<path id="패밀리사이트_화살표" class="st11" d="M7.5,323L2,317.6l1.6-1.6l3.8,3.8l3.8-3.8l1.6,1.6L7.5,323z"/>
</g>
<g>
	<g id="그룹_647" transform="translate(-275 -2788)">
		<circle id="타원_35" class="st12" cx="303" cy="3143" r="28"/>
	</g>
	<path class="st13" d="M41.4,367.9l-4.5-4.5c-0.1-0.1-0.3-0.2-0.4-0.2c2.3-2.3,3.7-5.4,3.7-8.9c0-6.9-5.6-12.5-12.5-12.5
		s-12.5,5.6-12.5,12.5s5.6,12.5,12.5,12.5c3,0,5.7-1.1,7.9-2.8c0,0.2,0.1,0.4,0.2,0.5l4.5,4.5c0.1,0.1,0.3,0.2,0.5,0.2
		c0.1,0,0.3-0.1,0.6-0.2C41.7,368.7,41.7,368.2,41.4,367.9z M27.7,365.3c-6.1,0-11-4.9-11-11s5-11,11-11c6.1,0,11,4.9,11,11
		S33.8,365.3,27.7,365.3z"/>
</g>
<rect y="383" class="st3" width="56" height="56"/>
<rect y="439" class="st3" width="56" height="56"/>
<rect y="495" class="st3" width="16" height="16"/>
<circle id="타원_120" class="st14" cx="28" cy="411" r="28"/>
<polygon class="st1" points="23.3,428 22.2,427 36.1,413.1 22.2,399.2 23.3,398.1 37.2,412 37.2,412 38.3,413.1 38,413.3 38,413.3 
	37.7,413.6 "/>
<g id="_" transform="translate(-146 -2767)">
	<circle id="타원_120_1_" class="st14" cx="174" cy="3234" r="28"/>
	<path id="합치기_1_1_" class="st15" d="M164.8,3234.1l-0.3,0.3L164.8,3234.1l-0.3-0.3L164.8,3234.1l14.4-14.4L164.8,3234.1
		l14.4,14.4L164.8,3234.1z"/>
</g>
<polygon class="st16" points="15.4,496.3 14.7,495.6 8,502.3 1.3,495.6 0.6,496.3 7.3,503 0.6,509.7 1.3,510.4 8,503.7 14.7,510.4 
	15.4,509.7 8.7,503 "/>
<g>
	<g id="로그아웃" transform="translate(21.548 1.751) rotate(90)" class="st5">
		<g id="그룹_636_1_" transform="translate(0 5.131)">
			<path class="st4" d="M521.9,4.4c0,0.4-0.3,0.8-0.8,0.8h-10.6c-0.4,0-0.8-0.3-0.8-0.8s0.3-0.7,0.8-0.7h10.6
				C521.6,3.7,521.9,4,521.9,4.4z"/>
		</g>
		<path class="st4" d="M532.8,9.5c0,4.6-2.9,8.9-7.5,10.5c-5.8,2-12.2-1.1-14.2-6.9c-0.1-0.4,0.1-0.8,0.5-1c0.4-0.1,0.8,0.1,1,0.5
			c1.8,5,7.3,7.7,12.3,5.9s7.7-7.3,5.9-12.3s-7.3-7.7-12.3-5.9c-2.8,1-5,3.1-5.9,5.9c-0.1,0.4-0.6,0.6-1,0.5s-0.6-0.6-0.5-1
			c1.1-3.2,3.6-5.7,6.9-6.9c5.8-2,12.2,1.1,14.2,6.9C532.6,7.1,532.8,8.3,532.8,9.5z"/>
	</g>
	<rect y="511" class="st3" width="24" height="24"/>
	<g id="로그아웃_1_" transform="translate(21.548 1.751) rotate(90)" class="st5">
		<g id="그룹_636_2_" transform="translate(0 5.131)">
			<path class="st7" d="M521.9-19.6c0,0.4-0.3,0.8-0.8,0.8h-10.6c-0.4,0-0.8-0.3-0.8-0.8s0.3-0.8,0.8-0.8h10.6
				C521.6-20.3,521.9-20,521.9-19.6z"/>
		</g>
		<path class="st7" d="M532.8-14.5c0,4.6-2.9,8.9-7.5,10.5c-5.8,2-12.2-1.1-14.2-6.9c-0.1-0.4,0.1-0.8,0.5-1c0.4-0.1,0.8,0.1,1,0.5
			c1.8,5,7.3,7.7,12.3,5.9s7.7-7.3,5.9-12.3s-7.3-7.7-12.3-5.9c-2.8,1-5,3.1-5.9,5.9c-0.1,0.4-0.6,0.6-1,0.5s-0.6-0.6-0.5-1
			c1.1-3.2,3.6-5.7,6.9-6.9c5.8-2,12.2,1.1,14.2,6.9C532.6-16.9,532.8-15.7,532.8-14.5z"/>
	</g>
	<rect x="24" y="511" class="st3" width="24" height="24"/>
</g>
<g>
	<rect class="st3" width="38" height="38"/>
</g>
<g>
	<rect y="38" class="st3" width="38" height="38"/>
</g>
</svg>
