<?xml version="1.0" encoding="utf-8"?>
<!-- Generator: Adobe Illustrator 23.0.2, SVG Export Plug-In . SVG Version: 6.00 Build 0)  -->
<svg version="1.1" id="레이어_1" xmlns="http://www.w3.org/2000/svg" xmlns:xlink="http://www.w3.org/1999/xlink" x="0px"
	 y="0px" width="120px" height="647.3px" viewBox="0 0 120 647.3" style="enable-background:new 0 0 120 647.3;"
	 xml:space="preserve">
<style type="text/css">
	.st0{fill:none;}
	.st1{fill:#222222;}
	.st2{fill-rule:evenodd;clip-rule:evenodd;fill:#222222;}
	.st3{fill:#888888;}
	.st4{fill:#8DC21F;}
	.st5{fill:#FFFFFF;}
	.st6{fill:#00A2A2;}
	.st7{fill:#3D7FB9;}
	.st8{fill:#C9151E;}
	.st9{fill:#F5D11E;}
	.st10{fill:#6D5535;}
	.st11{fill:#5E442F;}
	.st12{fill:#FBDFB9;}
	.st13{clip-path:url(#SVGID_2_);fill:url(#SVGID_3_);}
	.st14{fill:#EA6000;}
	.st15{fill:#573B1A;}
	.st16{fill:#ECB873;}
	.st17{fill:#ED7F34;}
	.st18{fill:#58A9C8;}
	.st19{fill:#006FB0;}
	.st20{fill:#A15FA2;}
	.st21{fill:#F7B52C;}
	.st22{fill:#1EA66E;}
	.st23{fill:#070203;}
	.st24{fill:#1A1311;}
</style>
<rect class="st0" width="120" height="72"/>
<g>
	<g>
		
			<rect x="72.4" y="20.6" transform="matrix(1 -1.140549e-03 1.140549e-03 1 -3.707701e-02 8.396564e-02)" class="st1" width="2.4" height="23.9"/>
		
			<rect x="59.3" y="35.5" transform="matrix(1 -1.140549e-03 1.140549e-03 1 -4.181612e-02 7.370347e-02)" class="st1" width="10.6" height="2.4"/>
		<path class="st1" d="M64.4,21L64.4,21L64.4,21z"/>
		<path class="st1" d="M67,27.5c-0.1,2.7-2.6,3.8-2.6,3.8s-2.5-1.1-2.6-3.8l0,0c0.1-2.7,2.6-4,2.6-4S66.9,24.8,67,27.5L67,27.5z
			 M64.4,21c0,0-4.6,1.8-4.8,6.5l0,0c0.2,4.7,4.8,6.5,4.8,6.5s4.6-1.8,4.8-6.5l0,0C69,22.8,64.4,21,64.4,21"/>
	</g>
	<g>
		<g>
			<path class="st1" d="M23.4,38.5c1.4-0.4,2.7-1.6,2.7-1.6c1.8-1.6,1.5-3.9,1.5-3.9c-0.1-1.8-1.4-3.9-1.4-3.9
				C24.8,27,25,25.7,25,25.7c0.1-2.2,2.5-2.9,2.5-2.9l-1.4-2.3c-1.4,0.4-2.3,1.4-2.3,1.4C22,23.5,22.4,26,22.4,26
				c0.3,2.4,1.4,3.9,1.4,3.9C25.2,32.2,25,33,25,33c0.1,2-3,3.3-3,3.3L23.4,38.5z"/>
		</g>
		<polygon class="st1" points="36.1,20.5 36.1,27.2 34,27.2 34,20.4 31.8,20.4 31.8,38.8 34,38.8 34,29.6 36.1,29.6 36.1,38.9 
			38.3,38.9 38.3,20.5 		"/>
		<path class="st1" d="M31.6,50.5c-1.8,0-3.2-1.4-3.2-3.2s1.4-3.2,3.2-3.2s3.2,1.4,3.2,3.2S33.4,50.5,31.6,50.5 M31.6,41.6
			c-3.2,0-5.8,2.6-5.8,5.8s2.6,5.7,5.8,5.7s5.8-2.6,5.8-5.8C37.4,44.1,34.8,41.6,31.6,41.6"/>
	</g>
	<g>
		<path class="st1" d="M46.2,35.5h-2.3V23.9h2.3V35.5z M48.4,23.9v-2.4h-6.7v2.4l0,0v11.6l0,0v2.4h6.7v-2.4l0,0V23.9L48.4,23.9z"/>
		<polygon class="st1" points="53.9,20.5 53.9,24.4 50.7,24.4 50.8,26.8 53.9,26.8 53.9,30.8 50.8,30.8 50.8,33.2 53.9,33.2 
			54,38.9 56.4,38.9 56.3,20.5 		"/>
		<path class="st1" d="M49.5,50.5c-1.8,0-3.2-1.4-3.2-3.2s1.4-3.2,3.2-3.2s3.2,1.4,3.2,3.2C52.7,49,51.3,50.5,49.5,50.5 M49.5,41.6
			c-3.2,0-5.8,2.6-5.8,5.8s2.6,5.7,5.8,5.7s5.8-2.6,5.8-5.8S52.7,41.5,49.5,41.6"/>
	</g>
	<g>
		<path class="st1" d="M83.1,38.2c1.4-0.4,2.7-1.6,2.7-1.6c1.8-1.6,1.5-3.9,1.5-3.9c-0.1-1.8-1.4-3.9-1.4-3.9
			c-1.4-2.1-1.2-3.4-1.2-3.4c0.1-2.2,2.5-2.9,2.5-2.9l-1.4-2.3c-1.4,0.4-2.3,1.4-2.3,1.4c-1.8,1.6-1.4,4.1-1.4,4.1
			c0.3,2.4,1.4,3.9,1.4,3.9c1.5,2.4,1.2,3.1,1.2,3.1c0.1,2-3,3.3-3,3.3L83.1,38.2z"/>
		<polygon class="st1" points="94,20.6 94,39 96.4,39 96.4,29.7 99.2,29.7 99.2,27.4 96.4,27.4 96.4,20.6 		"/>
		<path class="st1" d="M92.4,44h2.1v6.5h-2.1V44z M90.2,41.6V44l0,0v6.5l0,0v2.4h6.3v-2.4l0,0V44l0,0v-2.4H90.2z"/>
		<polygon class="st1" points="88.3,41.7 86.9,41.7 83.1,41.7 83.1,44.1 86.9,44.1 86.9,46.1 83.2,46.1 83.2,48.5 83.2,48.5 
			83.2,52.9 83.2,52.9 89.3,52.9 89.3,50.5 85.6,50.5 85.6,50.5 85.6,48.5 89.4,48.5 89.3,46.1 89.3,46.1 89.3,41.7 		"/>
	</g>
</g>
<rect y="72" class="st0" width="120" height="72"/>
<g>
	<path class="st1" d="M50,100.1C50,100.1,50.1,100.1,50,100.1C50.1,100.1,50.1,100.1,50,100.1l0.1,6h2.7v-5.9c0-1.2-0.8-2.2-1.5-2.5
		s-1.2-0.3-1.3-0.3h-7.9v2.7L50,100.1L50,100.1z"/>
	<path class="st1" d="M58.2,94.6h-2.7v16.7c0,0,0,0,0,0.1h-0.1l0,0h-7.7v-5.3H45v5.3h-3.2v2.7h13.6c0.1,0,0.6,0,1.3-0.3
		s1.5-1.3,1.5-2.5v-5.4h3.1v-2.7h-3.1V94.6L58.2,94.6z"/>
	<path class="st1" d="M73.1,98.9l6.3,6.9l2-1.8l-6.3-7c-0.5-0.6-1.3-0.9-1.9-0.9c-1.3,0.1-1.9,0.9-2,0.9l-6.3,7l2,1.8L73.1,98.9z"/>
	<polygon class="st1" points="74.4,106.1 71.7,106.1 71.7,111.4 64.5,111.4 64.5,114.1 81.6,114.1 81.6,111.4 74.4,111.4 	"/>
	<path class="st1" d="M99.8,97.7C99.8,97.7,99.9,97.8,99.8,97.7C99.9,97.8,99.9,97.8,99.8,97.7l0.1,5.5h2.7v-5.4
		c0-1.2-0.8-2.2-1.5-2.5S99.9,95,99.8,95H86.2v2.7L99.8,97.7L99.8,97.7z"/>
	<rect x="86.2" y="106" class="st1" width="16.3" height="2.7"/>
	<path class="st1" d="M86.2,122.4L86.2,122.4l13.5,0.1c0.1,0,0.6,0,1.3-0.3c0.7-0.3,1.5-1.3,1.5-2.5v-8.3H86.2V122.4z M88.9,114.1
		h11v5.6c0,0,0,0,0,0.1h-0.1l0,0H88.9V114.1z"/>
	<rect x="34.3" y="94.6" class="st1" width="2.7" height="11.5"/>
	<path class="st1" d="M30.1,106.1V94.6h-2.7V98h-6.1v-3.4h-2.7v8.7c0,1.2,0.8,2.2,1.5,2.5s1.2,0.3,1.3,0.3H30.1z M21.3,103.4
		C21.3,103.3,21.3,103.3,21.3,103.4v-2.7h6.1v2.7H21.3L21.3,103.4C21.4,103.4,21.3,103.4,21.3,103.4z"/>
	<path class="st1" d="M30.4,114.1h6.5v-2.7h-6.8v-3.2h-2.7v3.2h-6.8v2.7h6.6c-0.2,0.1-0.3,0.3-0.3,0.3l-6.3,6.3l1.9,1.9l0,0l6.3-6.3
		c0,0,0.1,0,0.1-0.1l0,0l6.3,6.3l1.9-1.9l-6.3-6.3C30.6,114.3,30.5,114.2,30.4,114.1z"/>
</g>
<rect y="144" class="st0" width="120" height="72"/>
<g>
	<g>
		<path class="st2" d="M67,164.5c0,4,0,8,0,12c0,0.3,0,0.7,0.2,0.9s0.6,0.3,0.9,0.3s0.7,0,0.9-0.2c0.2-0.2,0.2-0.6,0.2-0.9
			c0-1.7,0-3.5,0-5.2c0-5.2,0.1-10.5,0-15.7v-0.1c-0.6-0.2-1.2-0.2-1.7,0c-0.1,0-0.3,0.1-0.3,0.2c-0.1,0.1-0.1,0.2-0.1,0.3
			c0,0.4,0,0.9,0.1,1.3c-0.1,0.6-0.2,1.2-0.1,1.8c0,0.1,0.1,0.1,0.1,0.2c-0.1,0.1-0.1,0.2-0.1,0.4c0,1.4,0,2.8,0,4.2
			c0,0.1,0,0.2,0.1,0.3C67.1,164.2,67,164.4,67,164.5z M79.9,188.9c-0.1-0.2-0.4-0.2-0.6-0.2c-0.5,0-0.9,0-1.4,0
			c-0.2,0-0.5,0-0.6-0.2c-0.2-0.2-0.2-0.4-0.2-0.7c0-1.7,0-3.4,0-5.1v-0.2c-0.4-0.1-0.8-0.1-1.2-0.1c-0.6,0-1,0-1,0.7
			c0,4.1,0,8.2,0,12.3c0,0.3,0,0.5,0.1,0.7c0.3,0.4,0.9,0.4,1.3,0.3c0.2,0,0.5-0.1,0.6-0.3c0.1-0.1,0.1-0.3,0.1-0.4
			c0-1.4,0-2.8,0-4.2c0-0.2,0-0.4,0.1-0.5s0.4-0.1,0.6-0.1c0.3,0,0.6,0,0.9,0.1c0.3,0,0.7,0,0.9-0.1c0.5-0.3,0.4-1,0.4-1.6
			C80,189.1,80,189,79.9,188.9z M54,196.2c0,0.2,0.1,0.1,0.1,0.2c0.2,0.6-0.3,1.1,0.4,1.3c0.6,0.2,1.3,0.1,1.8-0.1
			c0-4.7,0.1-9.3,0.1-14c0-0.3,0-0.6-0.2-0.9c-0.2-0.2-0.4-0.2-0.7-0.2c-0.1,0-0.3,0-0.4,0c-0.3,0-0.5,0.1-0.8,0.1
			c-0.1,0-0.1,0-0.2,0.1c-0.1,0.1-0.1,0.2-0.1,0.4c0,3.5,0,7,0,10.5C54,194.5,54,195.3,54,196.2C54.1,196.2,54.1,196.2,54,196.2z
			 M63.4,187.7c-1.2,0.3-2.2,1.2-2.6,2.4c-0.4,1.1-0.2,2.4,0.4,3.5c0.4,0.7,1,1.3,1.7,1.6c0.8,0.4,1.8,0.5,2.6,0.3
			c1.1-0.2,2.1-0.9,2.7-1.9s0.9-2.3,0.5-3.4c-0.4-1.1-1.3-2.1-2.5-2.4c1.3-0.3,2.7,0.2,3.9-0.3c0.4-0.5,0.4-1.3,0-1.8
			c-0.4,0.1-0.8,0-1.1-0.1c-0.2,0.2-0.5,0.2-0.8,0.1c-0.6-0.1-1.2-0.1-1.8-0.2c-0.2,0-0.3,0-0.4-0.1c-0.2-0.1-0.2-0.4-0.2-0.6
			c0-0.6,0-1.2,0-1.8c-0.7-0.2-1.3,0-2,0c0,0.5-0.2,0.9-0.1,1.4c0,0.4,0,0.9-0.4,1.1c-0.2,0.1-0.4,0.1-0.6,0.1c-0.9,0-1.9,0-2.8,0
			c-0.2,0-0.5,0-0.7,0.2c-0.3,0.2-0.3,0.6-0.2,1c0,0.2,0,0.4,0.2,0.6c0.2,0.3,0.6,0.3,0.9,0.3C61.2,187.7,62.3,187.7,63.4,187.7z
			 M64.6,189.7L64.6,189.7c0.2,0,0.3,0,0.5,0c0,0.1,0.1,0.1,0.2,0.1s0.2,0,0.2,0c0.1,0,0.2,0.3,0.3,0.2c0.5,0.3,0.9,0.9,0.9,1.5
			c0,0.1,0,0.2,0,0.3s-0.1,0.2-0.1,0.2c-0.1,0.2-0.2,0.5-0.4,0.7c0,0,0,0.1-0.1,0.1s-0.1,0.1-0.2,0.1s-0.1,0.1-0.1,0.2
			c0-0.1-0.1-0.1-0.2,0c-0.1,0-0.1,0.1-0.1,0.1s-0.1,0-0.2,0.1c-0.2,0.1-0.4,0.1-0.6,0.2c-0.1,0-0.2,0-0.2,0l-0.1-0.1
			c-0.1-0.1-0.2,0-0.3,0c-0.5,0-0.7-0.7-1.2-0.9c0-0.1,0.1-0.1,0.2-0.1c-0.3-0.1-0.3-0.5-0.3-0.8c0-0.2,0.1-0.3,0.1-0.5
			C63.2,190.3,63.8,189.8,64.6,189.7z M32.5,161.7c-0.1,0.5-0.1,1,0,1.5c0,0.2,0.1,0.5,0.3,0.6c0.1,0.1,0.3,0.1,0.5,0.1
			c1.1,0,2.2,0,3.4,0c0.3,0,0.6,0,0.9,0c0.1,0,0.3,0,0.4,0c0.2,0,0.5,0.1,0.7,0.2c0.2,0,0.4,0,0.6,0c1.3-0.1,2.6-0.1,3.9,0
			c0.4,0,0.8,0.1,1.2,0c0.2,0,0.3,0,0.5,0c0.3,0,0.7,0,0.9-0.2c0.3-0.2,0.3-0.6,0.3-1c0-1.8,0-3.7,0-5.5c0-0.3,0-0.6-0.2-0.8
			s-0.5-0.2-0.8-0.2c-2.2,0-4.5-0.1-6.7,0c-1.7,0-3.4,0-5.1,0.1c-0.1,0-0.3,0-0.4,0.1c-0.4,0.2-0.4,0.7-0.4,1.1c0,0.7,0,1.3,0,2
			C32.4,160.1,32.4,160.8,32.5,161.7z M34.7,159.6c0-0.4,0.1-0.7,0.1-1.1c2.4-0.2,4.9-0.1,7.4-0.1c0.1,0,0.2,0,0.3,0c0,0,0,0,0.1,0
			c0.1,0.1,0.1,0.1,0.2,0.2c0.3-0.1,0.6-0.2,0.9-0.1c0.2,0.4,0.2,0.9,0.2,1.4c0,0.4,0.1,0.9,0,1.3h-0.1c0,0.1,0,0.1,0,0.2
			c-0.1,0,0,0-0.1,0.1c-2.9,0-5.9,0-8.8,0C34.8,161,34.7,160,34.7,159.6z M51,159.9C51.1,159.9,51.1,159.9,51,159.9
			c0.1,0.1,0.1,0.2,0.1,0.3c0,0,0,0,0.1,0c0,0.6,0.2,0.3,0.4,0.6c0.6,0,1.2,0.1,1.5,0c0.2,0,0.4,0,0.6,0.1c0.5-0.1,1.1-0.1,1.6,0
			c-0.2,0.2-0.6,0.3-0.9,0.5c-0.3,0.2-0.6,0.5-0.8,0.8c-0.4,0.6-0.7,1.4-0.7,2.2c0,1.5,0.8,3,2.1,3.8c0.2,0.1,0.5,0.1,0.7,0.2
			c0.6,0.1,1.1,0.3,1.7,0.2c0.3,0,0.6-0.1,0.9-0.2c0.9-0.3,1.6-0.9,2.2-1.6c1.1-1.5,0.8-3.9-0.6-5.1c-0.5-0.3-1.1-0.6-1.6-0.9
			c0.8,0,1.7,0,2.5,0c0.4,0,0.8,0,1.3,0c0.2,0,0.4,0,0.5-0.1c0.3-0.2,0.3-0.6,0.3-1c0-0.3-0.1-0.6-0.4-0.8c-0.2-0.1-0.4-0.1-0.6-0.1
			c-0.8,0-1.6-0.1-2.3-0.1c-0.1,0-0.3,0-0.4,0c-0.1-0.1-0.3,0-0.4,0c-0.1,0-0.1,0-0.2-0.1c-0.2-0.1-0.4-0.4-0.4-0.7s0.1-0.7,0-1.1
			c0-0.1,0-0.2-0.1-0.3s-0.2-0.1-0.3-0.1c-0.4-0.1-1.2-0.3-1.6,0c-0.4,0.3-0.1,0.8-0.2,1.3c0,0.2-0.2,0.4-0.2,0.6
			c0,0.2-0.1,0.3-0.3,0.3c0,0,0,0.1-0.1,0.1c-0.1,0.1-0.4,0.1-0.7,0.1c-0.6,0-1.4,0.1-1.7,0c-0.2,0-0.8,0-0.9,0.1
			c-0.3,0-0.6,0-0.8,0.1c0,0,0,0,0,0.1c0,0,0,0-0.1,0c0,0.1,0,0.2,0,0.2s-0.1,0-0.1,0.1s0,0.2,0.1,0.3
			C51.2,159.7,51.1,159.7,51,159.9C51.1,159.8,51.1,159.8,51,159.9c0.1,0,0.1,0,0.2,0C51,159.8,51,159.8,51,159.9z M55.5,163.4
			c0.2-0.1,0.5-0.3,0.7-0.4c0.5-0.2,1.1-0.2,1.6,0.1c0.3,0.2,0.6,0.5,0.8,0.9c0.1,0.4,0.1,0.8-0.1,1.2c-0.1,0.2-0.2,0.3-0.3,0.5
			c-0.1,0.1-0.2,0.2-0.3,0.3c0,0,0,0.1-0.1,0.1c-0.1,0.1-0.2,0.1-0.3,0.2c-0.2,0.1-0.5,0.2-0.7,0.3c-0.2,0-0.4,0-0.6-0.1
			c-0.2-0.1-0.3-0.2-0.5-0.3c0,0,0,0-0.1-0.1c-0.4-0.3-0.8-0.7-0.8-1.2c0-0.4,0.2-0.7,0.3-1h0.1C55.3,163.6,55.4,163.5,55.5,163.4z
			 M39.3,194.2c1.4-1.9,3-3.7,4.6-5.4c0.2-0.2,0.5-0.4,0.7-0.3c1.5,1.6,2.9,3.3,4.4,4.9c0.1,0.3,0.3,0.5,0.4,0.8
			c0.2,0,0.3,0,0.4,0.2c0.5-0.3,1-0.6,1.4-1c0.1-0.1,0.2-0.2,0.3-0.3c0-0.2-0.1-0.3-0.2-0.4c-1.9-2.3-3.8-4.5-5.7-6.8
			c-0.3-0.2-0.5-0.5-0.8-0.7c-0.1-0.1-0.3-0.2-0.4-0.3c-0.1,0-0.1,0-0.2,0c-0.2,0.1-0.4,0.2-0.5,0.4c-1.2,1.3-2.3,2.7-3.4,4
			c-0.6,0.7-1.2,1.4-1.7,2.1c-0.3,0.4-1.2,1.1-1.2,1.7c0,0.5,0.9,0.9,1.3,1.2c0.1,0,0.2,0.1,0.3,0.1
			C39.2,194.3,39.3,194.2,39.3,194.2z M90.8,168.2c0-0.1,0-0.2-0.1-0.3s-0.3-0.1-0.4-0.1c-0.5,0-1.1,0-1.6,0c-0.3,0-0.5,0-0.7-0.2
			s-0.2-0.4-0.2-0.7c0-2.1,0-4.1,0-6.2c0-0.3,0-0.5-0.1-0.7c0-0.1-0.1-0.1-0.1-0.2c-0.2-0.2-0.6-0.2-0.9-0.2s-0.8,0.1-0.9,0.4
			c-0.1,0.2-0.1,0.4-0.1,0.6c0,3.3,0,6.6,0.1,10c0,1.6-0.1,3.3,0,4.9c0,0.6-0.1,1.4,0.6,1.7c0.2,0.1,1.6,0.2,1.6-0.2
			c0-0.6,0-1.2,0-1.8c-0.2,0-0.3-0.1-0.5-0.1c0.2,0,0.3,0,0.5-0.1c0-1.3,0-2.7,0-4c0-0.3,0-0.7,0.3-0.9c0.2-0.1,0.5-0.2,0.7-0.1
			c0.5,0,1,0,1.5,0c0.1,0,0.2,0,0.3,0c0.2-0.1,0.2-0.3,0.2-0.5C90.9,169,90.9,168.6,90.8,168.2z M74.6,167.8
			c0.9,0.8,2.1,1.2,3.3,1.1c1.4-0.2,2.7-1.1,3.3-2.4c0.6-1.3,0.5-2.8-0.3-4c-0.5-0.5-1.1-0.9-1.7-1.2c-0.7-0.3-1.4-0.4-2.2-0.3
			c-0.5,0.1-1,0.2-1.4,0.4c-0.6,0.3-1.1,0.7-1.5,1.2c-0.2,0.3-0.4,1.1-0.6,1.2c0,0.2,0.1,0.1,0.1,0.3h-0.1
			C73.5,165.5,73.5,166.7,74.6,167.8z M76.6,163.4c0.1-0.1,0.2-0.1,0.3-0.2c0.2-0.1,0.4-0.1,0.6-0.2c0.1,0,0.3,0,0.4,0
			c0.6,0.1,1.1,0.5,1.4,1.1c0.1,0.1,0.1,0.3,0,0.4c0.2,0.1,0.1,0.3,0.1,0.5c0,0.1,0,0.2-0.1,0.3c-0.1,0.3-0.3,0.5-0.4,0.8
			c-0.3,0.3-0.7,0.6-1.2,0.6c-0.2,0-0.3,0-0.5,0c-0.3,0-0.6-0.2-0.9-0.4c-0.2-0.1-0.3-0.2-0.4-0.4C75.2,165.1,75.7,164,76.6,163.4z
			 M34.7,168.9c1.5,0,2.9,0,4.4,0c0.2,0,0.4,0,0.6,0c1,0,2,0,3,0c0.1,0,0.1,0,0.2,0c0.1,0.1,0.2,0.1,0.3,0.1c1.8,0,3.7,0,5.5,0
			c0.2,0,0.5,0,0.6-0.2c0.1-0.1,0.1-0.2,0.1-0.3c0-0.3,0-0.6,0.1-0.9c0-0.3,0-0.6-0.2-0.8c-0.1-0.1-0.3-0.1-0.4-0.1
			c-2.4,0-4.9,0-7.3,0c-0.3,0-0.6,0-0.8-0.1s-0.4-0.4-0.3-0.7c0-0.1,0.1-0.2,0-0.3c0.1-0.4,0-0.8-0.1-1.2c0-0.1-0.7-0.1-0.8-0.1
			c-0.5,0-0.9,0-1.4,0.1c0,0.3,0,0.5-0.1,0.8c0,0.3,0,0.7-0.1,1c0,0.1,0,0.3-0.1,0.4c-0.1,0.1-0.3,0.1-0.4,0.1c-2.6,0-5.2,0-7.8,0
			c-0.2,0-0.4,0-0.5,0.2c-0.1,0.1-0.1,0.2-0.1,0.3c0,0.5,0,0.9,0,1.4c0,0.1,0,0.1,0.1,0.2c0,0,0.1,0,0.2,0c1.5,0,3,0.1,4.6,0.1
			C34.2,168.9,34.5,168.9,34.7,168.9z M82.7,173.7c-1.2,0-2.4,0-3.7,0c-0.5-0.4-0.4-1.8-0.3-2.3c0-0.2,0-0.7-0.1-0.8
			c0-0.3-0.1-0.3-0.2-0.5c-0.5,0-1.4-0.2-1.7,0.1c-0.3,0.2-0.2,0.8-0.2,1.3c0.1,0,0,0,0.1,0.1h-0.1c0.1,0-0.1,1.8-0.1,2
			c-1,0.2-2.1,0.3-3.1,0.2c-0.6-0.1-1.3-0.1-1.6,0.4c-0.2,0.4-0.1,0.8,0.1,1.2c0.1,0.2,0.1,0.3,0.3,0.4c0.1,0,0.2,0.1,0.3,0.1
			c3.2,0,6.5,0.1,9.7,0.1c0.4,0,0.8,0,1.1-0.3c0.5-0.4,0.3-1.2,0.1-1.8C83.1,173.7,82.9,173.7,82.7,173.7z M54.6,202.1
			c-0.5,0-0.9,0-1.4,0c-3.7,0-7.3,0-11,0c-0.1,0-0.3,0-0.4-0.1c-0.5-0.3-0.4-1.4-0.4-1.8c0-1,0-1.9,0-2.9c-0.1,0-0.1,0-0.2,0
			c-0.3-0.1-0.6-0.1-1-0.1c-0.3,0-0.7,0-0.9,0.3c-0.1,0.2-0.1,0.4-0.1,0.7c0,1.8,0.1,3.6,0.1,5.4c0,0.2,0,0.5,0.2,0.6
			c0.1,0,0.2,0,0.3,0c3.2,0,6.3,0,9.5,0c0.6,0,1.2,0,1.8,0c1.9,0,3.8,0,5.8,0c0.2,0,0.4,0,0.5-0.2c0-0.1,0-0.2,0-0.3
			c0-0.5,0-1-0.1-1.5C56.4,201.9,55.5,202.1,54.6,202.1z M62.8,175.9c0.1,0,0.3,0,0.4,0c0.4-0.2,0.4-0.7,0.4-1.1
			c0-0.3,0-0.6-0.3-0.8c-0.2-0.2-0.5-0.1-0.7-0.1c-1.4,0.1-2.9,0.1-4.3-0.1c-0.3-0.5-0.3-1-0.3-1.6c0-0.2,0-0.4,0-0.7
			c0-0.2,0-0.3,0-0.5s-0.1-0.3-0.3-0.4c-0.1-0.1-0.3-0.2-0.5-0.2c-0.3,0-0.7,0-1,0.1c-0.1,0-0.2,0.1-0.3,0.1
			c-0.1,0.1-0.1,0.3-0.1,0.5c0,0.7,0,1.4-0.1,2.1c0,0.1,0,0.3-0.1,0.3c-0.1,0.1-0.2,0.1-0.4,0.1c-1.1,0.2-2.3,0.2-3.4,0
			c-0.3,0-0.7-0.1-1,0c-1,0.3-0.6,2.1,0.4,2.1c1.3,0,2.6,0,3.9,0c0.7,0,1.5,0,2.2,0c0.6,0,1.1,0,1.7,0
			C60.3,175.9,61.6,175.9,62.8,175.9z M76.5,198.3c-1.5,0-2.9,0-4.4,0c-2.2,0-4.5,0-6.7,0c-0.9,0-1.7,0-2.6,0c-0.3,0-0.5,0-0.8,0
			c-0.7,0-1.7-0.3-2.4,0c-0.8,0.4-0.1,2.1-0.1,2.1c0.2-0.1,0.5-0.1,0.7,0.1c0.1-0.1,0.3-0.1,0.5-0.1c4.6,0.1,9.2,0.1,13.8,0
			c0.1,0,0.2,0,0.3,0c0.2,0.1,0.3,0.4,0.3,0.7c0,0.9,0,1.8,0,2.7c0,0.2,0,0.4,0.1,0.5c0.2,0.3,0.6,0.3,0.9,0.3c0.4,0,0.9,0,1.1-0.4
			c0.1-0.2,0.1-0.4,0.1-0.6c0-1.5,0-3,0-4.5c0-0.3,0-0.7-0.3-0.8C76.8,198.3,76.6,198.3,76.5,198.3z M73.2,198.4c-0.1,0-0.2,0-0.2,0
			s0,0,0-0.1C73.1,198.4,73.1,198.4,73.2,198.4L73.2,198.4z M39.3,173.4c0.2,0,0.4,0,0.4-0.2c0.2,0.1,0.3,0.1,0.5,0.2
			c1.5,0,3,0,4.4,0c0.4,0,0.9,0,1.3,0.1c0,1.1,0,2.3,0,3.4c0,0.2,0,0.3,0.1,0.4c0.1,0.2,0.4,0.2,0.6,0.2c0.5,0,1,0,1.5,0
			c0-1.2,0-2.3,0-3.5c0-0.2,0-0.4,0.2-0.5c-0.1-0.3-0.1-0.6,0-0.9c0.1-0.5,0-1-0.4-1.3c-0.2-0.1-0.5-0.1-0.7-0.1c-1.7,0-3.3,0-5,0
			c-0.6,0-1.2,0-1.8,0h-0.1c-0.2,0-0.3,0-0.5,0c-1.1,0-2.2,0-3.4,0c-1.1,0-2.2,0-3.3,0c-0.7,0-1.5-0.1-2.2,0c-0.3,0-0.5,0.1-0.7,0.2
			c-0.3,0.2-0.3,0.2-0.4,0.6c0,0.3,0,0.7,0.1,1c0,0.1,0,0.1,0.1,0.2c0.1,0.1,0.1,0.1,0.2,0.1c0.5,0.1,1.1,0.1,1.6,0.1
			c0.4,0,0.9,0,1.3,0c0.8,0,1.6,0,2.4,0c0.4,0,0.9,0,1.3,0c0.5,0,0.9,0,1.4,0C38.6,173.4,39,173.4,39.3,173.4z"/>
	</g>
</g>
<rect y="216" class="st0" width="120" height="72"/>
<g>
	<path class="st3" d="M42,244.1c0,0.7-0.2,1.2-0.6,1.5c-0.4,0.3-0.9,0.4-1.5,0.4h-8.7c-0.7,0-1.2-0.1-1.6-0.4
		c-0.4-0.3-0.6-0.8-0.6-1.5v-12.9h3.1v4.5H39v-4.5h3V244.1L42,244.1z M32.1,243.7H39V238h-6.9V243.7z M46.9,240.3v10h-2.7v-19.2h2.7
		v6.8h2.7v2.3L46.9,240.3L46.9,240.3z"/>
	<path class="st3" d="M61.8,233.2c1,1.2,1.6,2.7,1.6,4.5s-0.5,3.3-1.6,4.5c-1.2,1.4-2.7,2-4.7,2s-3.6-0.7-4.7-2
		c-1-1.2-1.5-2.7-1.5-4.5s0.5-3.3,1.5-4.5c1.1-1.4,2.7-2,4.7-2S60.7,231.9,61.8,233.2z M54.5,234.8c-0.6,0.8-0.9,1.8-0.9,2.9
		c0,1.1,0.3,2.1,0.9,2.9c0.6,0.9,1.5,1.3,2.6,1.3s2-0.4,2.7-1.3c0.6-0.8,0.9-1.7,0.9-2.9c0-1.1-0.3-2.1-0.9-2.9
		c-0.7-0.9-1.6-1.4-2.7-1.4C56,233.5,55.2,233.9,54.5,234.8z M66.6,231.2h2.7v19.4h-2.7V231.2z"/>
	<path class="st3" d="M91,238.1v2.3H71.8v-2.3H91z M79.6,237H74c-0.5,0-0.9-0.1-1.2-0.4c-0.3-0.3-0.4-0.7-0.4-1.4v-4.1h2.7v0.8h12.5
		v-0.8h2.7v4.1c0,0.6-0.1,1.1-0.4,1.4c-0.2,0.3-0.6,0.4-1.2,0.4h-5.5H79.6z M87.7,243.7H72.5v-2.3h17.8v5.5H75.2v1h15.2v2.3H74.1
		c-0.5,0-0.9-0.1-1.2-0.4c-0.3-0.3-0.4-0.7-0.4-1.3v-3.8h15.2V243.7z M75.2,234.8h12.5V234H75.2V234.8z"/>
	<path class="st3" d="M84.3,255.8h-4.5c0,3.2,0.5,5.7,1.3,7.4c0.8,1.5,2,2.4,3.5,2.7v2.7c-1.4-0.2-2.6-0.6-3.6-1.5s-1.9-2.1-2.6-3.8
		c-0.7,1.6-1.6,2.9-2.8,3.8c-1,0.8-2.1,1.3-3.4,1.4V266c1.5-0.3,2.6-1.2,3.4-2.8c0.9-1.7,1.3-4.2,1.3-7.4h-4.5v-2.3h11.7v2.3H84.3z
		 M87.8,253.5h2.7v19.4h-2.7V253.5z"/>
	<path class="st3" d="M66.3,253.4v8.9l0,0v2.9c-1.3,0.6-3.2,0.7-3.9,0.7l0,0h-8.7v-4.2H62v-8.3H51v2.3h8.3v3.7H51v7.1
		c0,0.6,0.1,1.1,0.4,1.4c0.3,0.3,0.6,0.4,1.2,0.4H62l0,0c0,0,0,0,0.1,0h0.3c0,0,0.5,0,1-0.1c1.2-0.2,2.4-0.5,2.9-0.7v2l0,0v3.3H69
		v-19.4L66.3,253.4L66.3,253.4z"/>
	<path class="st3" d="M36.9,256c0-0.2,0-0.3,0-0.5h-7.5v-2.1h10.2v0.8c0,1.7-0.3,3-1,4c-0.5,0.8-1.4,1.5-2.5,2.1
		c-0.9,0.4-2.1,0.8-3.5,1c-1,0.2-2.2,0.3-3.5,0.3v-2.2c0.9,0,1.8-0.1,2.7-0.2c1-0.1,1.9-0.3,2.6-0.6l0.7-0.3h-5.7v-1.9h7.4
		C36.9,256.4,36.9,256.2,36.9,256z M44.1,265.5H30v-2.3h16.7v5.7h-14v1.3h14.1v2.3H31.6c-0.5,0-0.9-0.1-1.2-0.4
		c-0.3-0.3-0.4-0.7-0.4-1.3v-4.1h14.1V265.5L44.1,265.5z M46.8,258.5v3.3h-2.6v-8.3h2.6v2.8h2.6v2.3L46.8,258.5L46.8,258.5z"/>
</g>
<rect y="360" class="st0" width="120" height="72"/>
<g>
	<g>
		<path class="st4" d="M51.7,387.4c0,0.5-0.1,0.9-0.1,1.2c-0.4,0.1-0.8,0.1-1.4,0.2c-0.5,0,1.5,0,0.9,0c-0.5,0-3.5,0-3.9-0.1
			c-0.4,0-0.8-0.1-1-0.2c-0.4,0-0.7,0.3-1,0.9s-0.5,1.2-0.6,1.9c-0.1,0.7-0.1,1.3,0,1.9s0.4,0.9,0.7,0.9c0.9,0.5,1.9,0.7,2.9,0.6
			s2-0.1,3-0.2c0,0.3-0.1,0.9-0.1,1.6s0,1.2-0.1,1.4c-1-0.1-2.2-0.1-3.5-0.2c-1.4,0-2.5,0-3.4,0c-0.5,0.3-0.8,0.7-0.9,1.3
			c-0.2,0.6-0.2,1.2-0.1,1.8c0.1,0.6,0.2,1.2,0.5,1.7s0.5,0.8,0.9,0.9h1.4h1.9c0.6,0,1.2,0,1.8,0.1c0.5,0,0.9,0.1,1.1,0.3
			c0.1,0,0.1,0.2,0.1,0.4c0,0.2,0,0.5,0,0.7c0,0.3-0.1,0.6-0.1,1c0.2,0.6,0.6,1,1.2,1.3c0.6,0.2,1.3,0.3,1.9,0.3
			c0.7,0,1.3-0.2,1.8-0.4c0.6-0.2,0.9-0.5,1-0.9c0-0.3,0.1-0.8,0.1-1.5c0-0.6,0-1.3,0.1-1.9c0-0.6,0.1-1.3,0.1-1.8
			c0-0.6,0-0.9,0-1.2c0-0.8,0.1-1.8,0.1-3.2c0-1.4,0.1-2.7,0.2-4.1c0.1-1.4,0.1-2.6,0.2-3.6c0-1.1,0.1-1.7,0.1-1.8
			c0-0.4-0.3-0.7-0.8-0.9c-0.5-0.2-1.1-0.3-1.8-0.3c-0.6,0-1.3,0.1-1.9,0.3c-0.6,0.2-1,0.5-1.3,0.9
			C51.7,386.5,51.7,386.9,51.7,387.4 M60.1,387.1c0,0.6,0,1.3-0.1,2.1c0,0.8-0.1,1.6-0.2,2.4c-0.1,0.8-0.1,7-0.2,7.7
			c0,0.2,0,0.6,0,1.1s0,1.1,0,1.8c0,0.6,0,1.3,0.1,1.9c0,0.6,0.1,1.1,0.2,1.5c0.2,0.4,0.6,0.7,1.1,0.9c0.5,0.2,1.1,0.3,1.7,0.4
			s1.2,0,1.7-0.2c0.5-0.2,1-0.5,1.3-0.8c-0.1-1.2-0.1-2.5-0.1-4s0.1-2.9,0.2-4.3s0.1-8.1,0.2-9.3c0.1-1.2,0.1-2,0.1-2.5
			c-0.2-0.5-0.5-0.9-1.1-1.1s-1.1-0.4-1.8-0.4s-1.2,0.1-1.8,0.4c-0.6,0.2-1,0.6-1.3,1L60.1,387.1L60.1,387.1z"/>
		<path class="st5" d="M62.9,407.4c-0.1,0-0.1,0-0.2,0c-0.6,0-1.2-0.2-1.8-0.4c-0.6-0.3-1-0.6-1.3-1.1v-0.1
			c-0.1-0.4-0.2-0.9-0.2-1.5s-0.1-1.3-0.1-1.9c0-0.7,0-1.3,0-1.8s0-0.9,0-1.1c0-0.4,0.1-2.5,0.1-4.4c0-1.6,0.1-3,0.1-3.4
			c0.1-0.8,0.1-1.6,0.2-2.4c0-0.8,0.1-1.5,0.1-2.1v-1.6l0.1-0.1c0.3-0.5,0.8-0.9,1.5-1.2c1.3-0.5,2.7-0.5,3.9,0
			c0.6,0.3,1.1,0.8,1.3,1.4v0.1c0,0.5,0,1.4-0.1,2.6c0,0.6-0.1,2.7-0.1,4.6s-0.1,3.9-0.1,4.6c-0.1,1.5-0.1,2.9-0.2,4.3
			c0,1.5,0,2.8,0.1,3.9v0.2l-0.1,0.1c-0.4,0.5-0.9,0.8-1.5,1C64,407.3,63.4,407.4,62.9,407.4z M60.3,405.5c0.2,0.3,0.5,0.5,0.9,0.7
			c0.5,0.2,1,0.3,1.5,0.3s1.1,0,1.5-0.2c0.4-0.1,0.7-0.3,1-0.6c-0.1-1.1-0.1-2.4,0-3.8c0-1.4,0.1-2.9,0.2-4.4c0-0.7,0.1-2.7,0.1-4.6
			c0-2.1,0.1-4.1,0.1-4.7c0.1-1.1,0.1-1.9,0.1-2.4c-0.1-0.4-0.4-0.6-0.8-0.8c-1-0.4-2.2-0.4-3.2,0c-0.4,0.2-0.8,0.4-1,0.7v1.3
			c0,0.6,0,1.3-0.1,2.1c0,0.8-0.1,1.6-0.2,2.4c0,0.4-0.1,1.8-0.1,3.3c0,2-0.1,4-0.1,4.4c0,0.2,0,0.6,0,1.1s0,1.1,0,1.8
			c0,0.6,0,1.3,0.1,1.9C60.2,404.7,60.3,405.2,60.3,405.5z M53.6,407.3c-0.7,0-1.3-0.1-1.9-0.4c-0.8-0.3-1.2-0.8-1.5-1.5v-0.1
			c0-0.4,0-0.7,0.1-1c0-0.3,0-0.5,0-0.7l0,0c-0.1-0.1-0.4-0.1-0.9-0.2c-0.5,0-1.1-0.1-1.8-0.1h-3.4h-0.1c-0.5-0.2-0.8-0.6-1.1-1.2
			c-0.3-0.5-0.4-1.1-0.5-1.8c-0.1-0.7,0-1.3,0.1-1.9c0.2-0.7,0.6-1.2,1.2-1.5h0.1H44c0.9,0,2.1,0,3.4,0c1.2,0,2.2,0.1,3.2,0.1
			c0-0.2,0-0.5,0-0.9s0-0.8,0-1.1c-0.8,0.1-1.7,0.1-2.5,0.2c-1.1,0.1-2.1-0.1-3-0.6c-0.4-0.1-0.9-0.3-1-1.2c-0.1-0.6-0.1-1.3,0-2
			s0.4-1.4,0.7-2c0.3-0.7,0.8-1.1,1.3-1.1h0.1h0.1c0.1,0,0.4,0.1,0.9,0.2c0.2,0,1.5,0,2.4,0c0.5,0,0.9,0,1.2,0c0.1,0,0.2,0,0.3,0
			c0-0.2,0-0.5,0.1-0.9c0-0.8,0.1-1,0.1-1.1v-0.1c0.3-0.5,0.8-0.9,1.5-1.1c1.3-0.4,2.8-0.4,4,0c0.9,0.4,1,0.9,1,1.3
			c0,0.1,0,0.6-0.1,1.8c0,1.1-0.1,2.3-0.2,3.6c-0.1,1.4-0.1,2.7-0.2,4.1c0,1.3-0.1,2.4-0.1,3.2c0,0.2,0,0.6,0,1.2s-0.1,1.2-0.1,1.8
			c0,0.6-0.1,1.3-0.1,1.9s-0.1,1.1-0.1,1.5c-0.1,0.5-0.5,0.9-1.2,1.2C55.1,407.2,54.4,407.3,53.6,407.3
			C53.8,407.3,53.7,407.3,53.6,407.3z M51.1,405.2c0.1,0.4,0.4,0.7,0.9,0.9c0.6,0.2,1.2,0.3,1.8,0.3s1.2-0.1,1.7-0.4
			c0.4-0.2,0.7-0.4,0.7-0.6c0-0.3,0.1-0.8,0.1-1.4s0-1.3,0.1-1.9c0-0.6,0.1-1.2,0.1-1.8c0-0.6,0-0.9,0-1.2c0-0.8,0.1-1.9,0.1-3.2
			c0-1.4,0.1-2.7,0.2-4.1c0.1-1.4,0.1-2.6,0.2-3.6c0-0.8,0.1-1.6,0.1-1.8c0-0.1,0-0.3-0.5-0.5c-0.9-0.4-2.2-0.4-3.4,0
			c-0.5,0.2-0.8,0.4-1,0.6c0,0.1,0,0.3-0.1,0.9l0,0c0,0.6-0.1,1-0.1,1.2v0.3l-0.3,0.1h-0.1c-0.2,0.2-0.6,0.2-1.4,0.2h-0.4v-0.1
			c0,0,0,0-0.1,0c-1.3,0-2.2,0-2.5,0c-0.4,0-0.7-0.1-1-0.2c-0.3,0.1-0.5,0.4-0.6,0.7c-0.3,0.5-0.5,1.1-0.6,1.8
			c-0.1,0.6-0.1,1.2,0,1.7s0.3,0.6,0.4,0.6h0.1h0.1c0.8,0.4,1.7,0.6,2.7,0.6c1-0.1,2.1-0.1,3-0.2h0.5l-0.1,0.5
			c0,0.3-0.1,0.8-0.1,1.5s0,1.2-0.1,1.4l-0.1,0.4H51c-1-0.1-2.2-0.1-3.5-0.2c-1.3,0-2.4,0-3.3,0c-0.3,0.2-0.5,0.5-0.6,0.9
			c-0.1,0.5-0.2,1.1-0.1,1.6c0.1,0.6,0.2,1.1,0.4,1.5s0.4,0.6,0.6,0.7h3.2c0.6,0,1.3,0,1.8,0.1c0.6,0,1,0.2,1.3,0.3
			c0.2,0.1,0.3,0.4,0.3,0.8c0,0.2,0,0.4,0,0.7v0.1C51.1,404.6,51.1,404.9,51.1,405.2z M50.4,403.5L50.4,403.5
			C50.5,403.5,50.4,403.5,50.4,403.5z"/>
		<path class="st4" d="M35,397.8c0,0-2.2,2.2-4.1,0.2c-1.8-2,0.3-4.7,0.8-5.1c0,0,3.7-3.8,5.2,0C36.9,392.9,37.8,395,35,397.8
			 M41.2,388.7c-6.7-9.1-17.6,4.4-12.6-0.2c-1.2,1.1-7.2,8.7-2.1,14.2c5.1,5.6,11.3-0.6,11.3-0.6C45.4,394.3,41.2,388.7,41.2,388.7"
			/>
		<path class="st5" d="M31.3,405.5c-0.1,0-0.1,0-0.2,0c-1.9,0-3.6-0.9-5-2.5c-4.2-4.5-1.3-10.3,0.8-13.2h-0.1v-0.3
			c0.1-0.6,3-3.2,6.2-4.1c2.4-0.6,5.7-0.6,8.5,3.1c0.1,0.1,4.2,6-3.5,14C37.9,402.6,34.9,405.5,31.3,405.5z M28.8,388.9
			c-0.6,0.6-2.3,2.7-3.3,5.3c-1.2,3.3-0.8,6.1,1.2,8.4c1.3,1.4,2.8,2.1,4.4,2.2c3.3,0.1,6.3-2.7,6.3-2.8c7.3-7.5,3.4-12.9,3.4-12.9
			l0,0c-1.6-2.1-3.5-3.2-5.8-3c-2.6,0.1-5,1.7-6.4,2.8H28.8L28.8,388.9L28.8,388.9L28.8,388.9z M32.7,399.3L32.7,399.3
			c-0.8,0-1.5-0.3-2.1-1c-2.1-2.2,0.3-5.2,0.8-5.7c0.1-0.1,2.1-2.1,3.9-1.8c0.9,0.2,1.5,0.8,1.9,1.9c0,0.1,0.9,2.4-2,5.4l0,0
			C35.3,398.2,34.1,399.3,32.7,399.3z M34.9,391.7c-1.1,0-2.4,1.1-2.9,1.6c0,0-2.5,2.7-0.8,4.5c0.4,0.5,0.9,0.7,1.4,0.7
			c1,0,2-0.9,2.1-0.9c2.5-2.6,1.8-4.4,1.8-4.5c-0.3-0.8-0.8-1.3-1.3-1.4C35.1,391.7,35,391.7,34.9,391.7z"/>
		<g>
			<path class="st5" d="M32.3,402.2v0.5c0.5,0,1-0.1,1.5-0.3l-0.2-0.5C33.3,402,32.8,402.1,32.3,402.2z"/>
			<path class="st5" d="M34.6,401.6l0.2,0.5c0.5-0.2,0.9-0.5,1.4-0.8l-0.3-0.4C35.5,401.1,35.1,401.4,34.6,401.6z"/>
			<path class="st5" d="M29.8,402.3c0.5,0.2,1,0.4,1.5,0.4l0.1-0.5c-0.5-0.1-0.9-0.2-1.4-0.4L29.8,402.3z"/>
			<path class="st5" d="M27.9,392.4c-0.3,0.5-0.6,1-0.8,1.5l0.5,0.2c0.2-0.5,0.5-1,0.8-1.5L27.9,392.4z"/>
			<path class="st5" d="M27.2,395.2l-0.5-0.2c-0.2,0.6-0.3,1.2-0.3,1.7h0.5C26.9,396.3,27,395.7,27.2,395.2z"/>
			<path class="st5" d="M26.4,398c0.1,0.6,0.3,1.2,0.6,1.7l0.5-0.3c-0.3-0.5-0.4-1-0.5-1.5L26.4,398z"/>
			<path class="st5" d="M32.4,388.9l-0.2-0.5c-0.5,0.2-1,0.6-1.5,0.9l0.3,0.4C31.5,389.4,32,389.1,32.4,388.9z"/>
			<path class="st5" d="M35.1,388.3v-0.5c-0.6,0-1.2,0-1.8,0.2l0.1,0.5C34,388.3,34.6,388.3,35.1,388.3z"/>
			<path class="st5" d="M38,388.7c-0.5-0.3-1.1-0.6-1.6-0.7l-0.1,0.5c0.5,0.1,1,0.4,1.5,0.7L38,388.7z"/>
			<path class="st5" d="M40.3,393.5h0.5c0-0.6-0.1-1.2-0.3-1.7L40,392C40.2,392.4,40.3,393,40.3,393.5z"/>
			<path class="st5" d="M39.7,396l0.5,0.2c0.2-0.5,0.4-1.1,0.5-1.6l-0.5-0.1C40.1,395,39.9,395.5,39.7,396z"/>
			<path class="st5" d="M38.4,398.3l0.4,0.3c0.3-0.5,0.6-0.9,0.9-1.4l-0.5-0.3C39,397.4,38.7,397.9,38.4,398.3z"/>
			<path class="st5" d="M39.6,391l0.5-0.3c-0.3-0.5-0.5-0.7-0.5-0.7c-0.2-0.2-0.4-0.4-0.6-0.6l-0.3,0.4c0.2,0.2,0.4,0.4,0.6,0.6
				C39.2,390.4,39.4,390.6,39.6,391z"/>
			<path class="st5" d="M37.2,399.8c0,0-0.2,0.2-0.5,0.5l0.3,0.4c0.4-0.3,0.6-0.5,0.6-0.5c0.2-0.2,0.4-0.4,0.6-0.6l-0.4-0.3
				C37.6,399.4,37.4,399.6,37.2,399.8z"/>
			<path class="st5" d="M30.1,390.5l-0.4-0.4c-0.2,0.2-0.4,0.4-0.5,0.5l-0.1,0.1c-0.2,0.1-0.4,0.4-0.6,0.7l0.4,0.3
				c0.2-0.3,0.4-0.5,0.5-0.6l0.1-0.1C29.7,390.9,29.9,390.7,30.1,390.5z"/>
			<path class="st5" d="M28,400.3l-0.4,0.4c0.2,0.2,0.4,0.4,0.6,0.6s0.4,0.3,0.6,0.5l0.3-0.5c-0.2-0.1-0.4-0.3-0.6-0.4
				C28.4,400.7,28.2,400.5,28,400.3z"/>
		</g>
		<path class="st5" d="M52.9,400.5h-1.6V400h1.6V400.5z M50.3,400.5h-1.6V400h1.6V400.5z M47.7,400.5h-1.6V400h1.6V400.5z"/>
		<path class="st5" d="M53.2,392.8h-1.6v-0.5h1.6V392.8z M50.6,392.8H49v-0.5h1.6V392.8z M48,392.8h-1.6v-0.5H48V392.8z"/>
		<path class="st5" d="M54.4,404h-0.5v-1.7h0.5V404z M54.4,401.1h-0.5v-1.7h0.5V401.1z M54.5,398.1H54v-1.7h0.5V398.1z M54.5,395.2
			H54v-1.7h0.5V395.2z M54.5,392.2H54v-1.7h0.5V392.2z M54.5,389.3H54v-1.7h0.5V389.3z"/>
		<path class="st5" d="M63,404h-0.5v-1.7H63V404z M63.1,401.1h-0.5v-1.7h0.5V401.1z M63.1,398.1h-0.5v-1.7h0.5V398.1z M63.1,395.2
			h-0.5v-1.7h0.5V395.2z M63.2,392.3h-0.5v-1.7h0.5V392.3z M63.2,389.3h-0.5v-1.7h0.5V389.3z"/>
	</g>
	<g>
		<path class="st6" d="M70.7,403.8c-1,1-1.7,2-1.9,3.1c-0.2,1.1,0.2,2.1,1.2,3l24.8,0.7c0.6-0.9,0.9-2,0.7-3.1
			c-0.1-1.1-0.7-2-1.7-2.7c-1.1,0-2.1,0-3-0.1c-0.9,0-1.7-0.1-2.6-0.1c-0.8,0-1.5,0-2.1-0.1v-3.9c-0.2-0.7-0.5-1.3-1-1.6
			c-0.5-0.3-1.1-0.5-1.7-0.5s-1.2,0.2-1.8,0.5c-0.6,0.3-1,0.7-1.2,1.2v4.1L70.7,403.8z M90.9,399.1c0.5-0.1,0.9-0.4,1.3-0.8
			s0.6-1,0.8-1.7c0.2-0.7,0.2-1.5,0.1-2.5c-0.8-0.3-1.6-0.6-2.4-1s-1.6-0.8-2.3-1.2c-0.7-0.4-1.3-0.8-1.8-1.1
			c-0.5-0.3-0.7-0.6-0.8-0.8c0.2-0.4,0.5-0.9,0.8-1.5s0.5-1,0.6-1.3c0.2-1.2,0.5-1-0.8-3.2c-0.8-0.9-1.6-1.5-2.6-1.7
			c-0.7-0.1-1.7-0.3-2.8-0.4c-1.1-0.1-2.3-0.2-3.5-0.3s-2.4-0.1-3.6-0.1s-2.2,0-3,0.1c-0.3,0.1-0.5,0.4-0.6,0.9s-0.2,1-0.1,1.7
			c0,0.6,0.1,1.2,0.3,1.8c0.2,0.6,0.6,1.1,1.1,1.5c1.4,0,2.9,0,4.4,0.1c1.6,0,2.8,0.2,3.8,0.4c-0.5,1-1.1,2-1.8,3
			c-0.6,1-1.3,1.3-1.9,2.2c-0.6,0.8-1.2,1.1-1.7,1.9s-1,1.4-1.4,1.9c-0.1,0.9,0,1.7,0.3,2.3c0.3,0.6,0.6,1,1.1,1.3s1,0.4,1.6,0.4
			s1.2-0.1,1.9-0.4c0.8-1.1,1.6-2.3,2.4-3.5c1.9-2.1,2.1-1.2,2.1-1.5c0.4,0.3,1,0.6,1.6,0.9c0.6,0.4,1.3,0.7,2,1.1
			c0.7,0.3,1.4,0.7,2,0.9c0.6,0.3,1.2,0.5,1.6,0.6C90,399.3,90.4,399.3,90.9,399.1"/>
		<path class="st5" d="M95,411h-0.2l-24.9-0.7l-0.1-0.1c-1.2-1-1.6-2.1-1.4-3.4c0.2-1.2,0.9-2.3,2-3.4l0.1-0.1l9.4,0.5v-3.7V400
			c0.3-0.6,0.8-1.1,1.4-1.4c1.3-0.7,2.8-0.7,3.9,0c0.6,0.4,1,1,1.2,1.8v0.1v3.6c0.5,0,1,0,1.7,0.1c0.9,0,1.7,0.1,2.6,0.1
			s2,0.1,3,0.1H94l0.1,0.1c1.1,0.8,1.7,1.8,1.8,3c0.1,1.2-0.2,2.3-0.8,3.3L95,411z M70.2,409.4l24.4,0.7c0.5-0.8,0.6-1.7,0.6-2.6
			c-0.1-0.9-0.5-1.7-1.4-2.3c-1,0-2,0-2.9-0.1c-0.9,0-1.7-0.1-2.6-0.1s-1.6-0.1-2.1-0.1h-0.4v-4.3c-0.2-0.6-0.4-1-0.8-1.3
			c-0.9-0.6-2.1-0.6-3.1,0c-0.5,0.3-0.8,0.6-1,1v4.4l-10-0.5c-0.9,0.9-1.4,1.8-1.6,2.8C69,407.9,69.4,408.7,70.2,409.4z M75.9,401.3
			c-0.6,0-1.2-0.1-1.7-0.4s-0.9-0.8-1.2-1.5c-0.3-0.6-0.4-1.5-0.3-2.5v-0.1l0.1-0.1c0.4-0.5,0.8-1.1,1.4-1.9c0.3-0.5,0.7-0.8,1-1.1
			c0.3-0.2,0.5-0.5,0.8-0.8c0.3-0.5,0.6-0.8,0.9-1.1s0.6-0.6,0.9-1.1c0.5-0.9,1-1.7,1.5-2.5c-0.9-0.1-2-0.2-3.2-0.3
			c-1.6,0-3-0.1-4.4-0.1h-0.1l-0.1-0.1c-0.6-0.4-1-1-1.2-1.7s-0.3-1.3-0.3-2s0-1.3,0.2-1.8c0.2-0.6,0.5-1,0.9-1.1h0.1h0.1
			c0.8-0.1,1.9-0.1,3-0.1c1.2,0,2.4,0.1,3.6,0.1c1.2,0.1,2.4,0.2,3.5,0.3c1.1,0.1,2,0.3,2.8,0.4c1.1,0.2,2,0.9,2.8,1.9v0.1
			c1.1,1.9,1.2,2.1,0.9,3.1c0,0.1-0.1,0.3-0.1,0.4v0.1c-0.1,0.3-0.3,0.7-0.6,1.4c-0.3,0.5-0.5,0.9-0.7,1.3c0.1,0.1,0.2,0.2,0.5,0.4
			c0.5,0.3,1,0.7,1.7,1.1s1.5,0.8,2.3,1.2c0.8,0.4,1.7,0.7,2.4,1l0.2,0.1v0.3c0.1,1,0.1,1.9-0.1,2.7c-0.2,0.8-0.5,1.4-0.9,1.9
			s-0.9,0.8-1.5,1l0,0c-0.6,0.1-1.1,0.1-1.6,0s-1-0.3-1.6-0.6c-0.6-0.3-1.3-0.6-2-0.9s-1.4-0.7-2-1.1c-0.6-0.3-1.1-0.6-1.5-0.9h-0.1
			c-0.1,0-0.6,0.1-1.6,1.3c-0.8,1.2-1.6,2.4-2.4,3.5l-0.1,0.1h-0.1c-0.7,0.2-1.4,0.4-2,0.4C76,401.3,75.9,401.3,75.9,401.3z
			 M73.5,397.1c-0.1,0.8,0,1.5,0.2,2s0.5,0.9,0.9,1.1s0.8,0.3,1.4,0.3c0.5,0,1.1-0.1,1.6-0.3c0.7-1.1,1.5-2.2,2.3-3.4l0,0
			c1-1.1,1.6-1.4,2-1.5v-0.4l0.7,0.4c0.4,0.3,1,0.6,1.6,0.9c0.6,0.4,1.3,0.7,2,1.1c0.7,0.3,1.3,0.6,2,0.9c0.6,0.3,1.1,0.5,1.5,0.6
			s0.7,0.1,1.1,0s0.7-0.3,1.1-0.7c0.3-0.4,0.6-0.9,0.7-1.5s0.2-1.3,0.1-2.1c-0.7-0.3-1.5-0.6-2.2-1c-0.9-0.4-1.6-0.8-2.4-1.2
			c-0.7-0.4-1.3-0.8-1.8-1.1c-0.6-0.4-0.9-0.7-0.9-1V390l0.1-0.1c0.2-0.4,0.5-0.9,0.8-1.5c0.4-0.7,0.5-1,0.6-1.2
			c0-0.2,0.1-0.3,0.1-0.4c0-0.8,0-0.8-1-2.6c-0.7-0.8-1.5-1.4-2.3-1.5c-0.7-0.1-1.6-0.3-2.7-0.4s-2.3-0.2-3.4-0.3
			c-1.2-0.1-2.4-0.1-3.6-0.1c-1.1,0-2.1,0-2.8,0.1c-0.1,0.1-0.2,0.2-0.4,0.6c-0.1,0.4-0.1,0.9-0.1,1.5s0.1,1.2,0.3,1.7
			c0.2,0.5,0.5,0.9,0.9,1.2c1.3,0,2.8,0,4.3,0.1c1.6,0,2.9,0.2,3.9,0.4l0.5,0.1l-0.3,0.5c-0.5,1-1.1,2-1.8,3.1
			c-0.4,0.6-0.7,0.9-1,1.2c-0.3,0.3-0.6,0.6-0.8,1c-0.3,0.4-0.6,0.7-0.9,0.9c-0.3,0.3-0.6,0.6-0.9,0.9
			C74.3,396,73.9,396.6,73.5,397.1z"/>
		<g>
			<path class="st5" d="M82.3,385.5c-0.4-0.1-1-0.2-1.6-0.3l0.1-0.5c0.6,0.1,1.2,0.2,1.6,0.3L82.3,385.5z M79.7,385.1
				c-0.5,0-1.1-0.1-1.6-0.1v-0.5c0.5,0,1.1,0.1,1.6,0.1V385.1z M77,384.9c-0.6,0-1.1-0.1-1.6-0.1v-0.5c0.5,0,1,0,1.6,0.1V384.9z"/>
			<path class="st5" d="M76.9,397.8l-0.4-0.4c0.4-0.4,0.8-0.7,1.2-1.1l0.4,0.4C77.7,397.1,77.3,397.5,76.9,397.8z M78.9,396
				l-0.4-0.4c0.4-0.4,0.8-0.8,1.1-1.1l0.4,0.4C79.6,395.3,79.3,395.6,78.9,396z M80.7,394.2l-0.4-0.4c0.4-0.4,0.7-0.8,1-1.2l0.4,0.3
				C81.4,393.3,81.1,393.7,80.7,394.2z M82.3,392l-0.5-0.3c0.3-0.4,0.5-0.9,0.6-1.4l0.5,0.2C82.8,391.1,82.6,391.5,82.3,392z
				 M83.3,389.5l-0.5-0.2c0.1-0.5,0.3-1,0.4-1.5l0.5,0.1C83.6,388.5,83.4,389.1,83.3,389.5z"/>
			<path class="st5" d="M75.5,399.1l-0.4-0.4l0.6-0.5l0.4,0.4L75.5,399.1z M84,387l-0.5-0.1l0.2-0.8c0,0-0.1-0.1-0.3-0.3l0.2-0.5
				c0.6,0.3,0.7,0.6,0.6,0.9L84,387z M74.4,384.8c-0.5,0-0.8,0-0.8,0v-0.5c0,0,0.3,0,0.8,0V384.8z"/>
		</g>
		<path class="st5" d="M90,396.8l-1.4-0.8l0.3-0.5l1.4,0.8L90,396.8z M87.7,395.4l-1.4-0.8l0.3-0.5l1.4,0.8L87.7,395.4z M85.3,394
			l-1.4-0.8l0.3-0.5l1.4,0.8L85.3,394z M82.9,392.6l-1.4-0.8l0.3-0.5l1.4,0.8L82.9,392.6z"/>
		<path class="st5" d="M83.7,407.1h-0.5v-1.4h0.5V407.1z M83.7,404.8h-0.5v-1.4h0.5V404.8z M83.7,402.5h-0.5v-1.4h0.5V402.5z"/>
		<path class="st5" d="M93.6,408H92v-0.5l1.6,0.1V408z M91,407.9l-1.6-0.1v-0.5l1.6,0.1V407.9z M88.4,407.8l-1.6-0.1v-0.5l1.6,0.1
			V407.8z M85.8,407.7l-1.6-0.1v-0.5l1.6,0.1V407.7z M83.2,407.6l-1.6-0.1V407l1.6,0.1V407.6z M80.6,407.5l-1.6-0.1v-0.5l1.6,0.1
			V407.5z M78,407.4l-1.6-0.1v-0.5l1.6,0.1V407.4z M75.4,407.3l-1.6-0.1v-0.5l1.6,0.1V407.3z M72.8,407.2l-1.6-0.1v-0.5l1.6,0.1
			V407.2z"/>
	</g>
</g>
<rect y="504" class="st0" width="120" height="72"/>
<g>
	<path class="st7" d="M92.3,544.9c0.6-0.5,1-1.1,1-2.1l0,0l0,0l0,0c-0.1-1.2-0.6-1.7-1.1-2.2c-0.6-0.5-2.1-1-3.5-1l0,0
		c-1.5,0-2.8,0.3-3.5,0.9c-0.7,0.5-1.2,1.2-1.2,2.4v0.1c0,1.1,0.6,1.7,1.3,2.2c0.7,0.5,2.1,1,3.6,1l0,0l0,0l0,0c1.3,0,2.5-0.5,3.3-1
		 M95.4,531.9c1.6,1.8,2.4,4.4,2.4,7.6l0,0l0,0c0,2.7-0.4,5.4-1.4,8.3c-0.3,0.8-0.6,1.4-1.1,1.9s-1.1,0.8-1.8,0.8l0,0l0,0l0,0l0,0
		c-0.3,0-0.8-0.1-1.3-0.5c-0.3-0.2-0.4-0.5-0.5-0.8c-1.1,0.3-2.5,0.6-3.5,0.6l0,0c-2.5,0-4.5-0.6-6-1.7c-1.5-1.2-2.3-3.2-2.3-5.2
		l0,0l0,0l0,0l0,0c0-2.1,0.7-3.9,2.4-5.2c1.6-1.3,3.7-1.8,6.2-1.8l0,0l0,0c1.6,0,3.2,0.3,4.6,1c-0.2-0.9-0.5-1.4-1-1.9
		c-0.6-0.7-2.2-1.2-3.7-1.2v-0.1v0.1c-0.6,0-1.3,0.1-2,0.5c-0.9,0.3-1.4,0.6-2,0.6l0,0c-0.6,0-1.2-0.2-1.6-0.6
		c-0.5-0.4-0.8-0.9-0.8-1.5l0,0l0,0l0,0c0-0.6,0.3-1,0.6-1.4c0.4-0.4,0.9-0.7,1.4-0.9c1.3-0.6,2.7-0.9,4.4-0.9l0,0l0,0l0,0l0,0
		C91.2,529.3,93.7,530.1,95.4,531.9L95.4,531.9"/>
	<path class="st7" d="M23,547.4L23,547.4c1.8,1.4,4.4,3,7.9,3.2c2.2,0.1,4.2-0.4,5.9-1.4c1.6-1,2.9-2.7,2.9-4.7c0-1-0.3-1.9-0.8-2.8
		c-0.7-1.2-1.9-2.1-3.1-2.6c-1.3-0.6-2.7-1.1-4.1-1.4l0,0l0,0c-1.5-0.3-2.7-0.7-3.2-1.2c-0.3-0.2-0.4-0.4-0.5-0.4
		c-0.1-0.1-0.1-0.2-0.1-0.3c0-0.2,0.1-0.6,0.7-0.9c0.6-0.4,1.6-0.7,2.7-0.6c1.4,0.1,2.7,0.8,4.1,1.7c1.1,0.8,2.6,0.5,3.3-0.4
		c0.7-1,0.4-2.4-0.6-3.1c-1.4-1-3.6-2.5-6.7-2.6c-2.1-0.1-3.9,0.4-5.5,1.3c-1.5,1-2.7,2.6-2.8,4.5c0,1,0.2,1.9,0.7,2.7
		c0.8,1.2,1.8,2,3,2.6s2.5,0.9,3.9,1.3l0,0c1.6,0.4,2.9,0.9,3.6,1.3c0.3,0.2,0.5,0.4,0.6,0.5s0.1,0.2,0.1,0.4c0,0.3-0.2,0.7-0.8,1.2
		c-0.7,0.4-1.9,0.7-3.1,0.7c-1.8,0-3.7-1.1-4.9-2.1c-1-0.8-2.5-0.8-3.4,0.2C22,545.2,22.1,546.6,23,547.4"/>
	<path class="st7" d="M74.4,546.3L74.4,546.3L74.4,546.3 M74.9,549.8L74.9,549.8L74.9,549.8L74.9,549.8L74.9,549.8z M74.8,549.8
		L74.8,549.8L74.8,549.8c-0.4-0.6-0.5-1.1-0.5-1.6c0-0.3,0-0.6,0-1s0-0.7,0-0.8l0,0l0,0l0,0l0,0l0,0l0,0c0-0.1,0-0.2,0-0.3
		c0-3,0-5.1-0.8-7.4c-0.5-1.6-1.2-2.6-1.8-3.3c-0.6-0.6-0.9-0.7-1.6-0.8c-0.6,0.1-1,0.1-1.6,0.5s-1.1,1-1.5,1.9
		c-1.4,2.6-1.2,4.1-1.7,8.2c-0.1,0.7-0.1,1.9-0.4,3.6v0.1v0.1c-0.1,0.4-0.3,0.8-0.7,1.1c-0.4,0.3-0.9,0.5-1.4,0.5l0,0l0,0
		c-0.7,0-1.3-0.4-1.6-0.9c-0.3-0.4-0.5-1-0.5-1.5l0,0l0,0c0-0.2,0-0.5,0-0.8s0-0.6,0-0.7l0,0l0,0c0-1.4-0.1-3.4-0.4-4.9
		c-0.2-1.5-0.6-2.8-1.1-3.5c-0.2-0.4-0.4-0.8-0.4-1.4c0-0.5,0.1-1.1,0.5-1.6c0.4-0.6,1.1-0.8,1.6-0.8l0,0l0,0c0.4,0,0.8,0.2,1.1,0.4
		s0.5,0.4,0.7,0.7c0.1,0.2,0.3,0.4,0.4,0.6c0.5-1.3,0.9-2.4,1.6-3.3c1.3-1.8,3.1-2.9,5.1-2.9l0,0l0,0l0,0c1.7,0,3.3,0.7,4.5,1.9
		s2.2,2.6,2.9,4.6c1.1,3.1,1.3,6.2,1.3,10.2v0.5c0,0.8,0,1.3-0.1,1.8c-0.1,0.4-0.2,0.9-0.6,1.3c-0.4,0.4-0.9,0.7-1.5,0.7l0,0
		c0,0,0,0-0.1,0C75.9,550.6,75.3,550.3,74.8,549.8"/>
	<path class="st7" d="M56,545.3c0.5,0,1.1,0.3,1.5,0.8s0.4,1.1,0.3,1.6c-0.1,0.6-0.4,1.1-0.8,1.4c-0.4,0.3-0.9,0.5-1.4,0.7
		c-1.9,0.6-3.7,0.9-5.4,0.6l0,0c-2.2-0.3-4.2-1.2-5.9-2.6c-1.6-1.4-2.7-3.3-3-5.3c-1.1-0.2-1.9-1.2-1.7-2.4c0,0-0.1-0.8,0.7-1.5
		c0.6-0.6,1.3-0.6,1.4-0.6c0.6-2.4,1.7-4.3,3.3-5.8c2-1.9,4.3-2.7,7-2.3c1.9,0.2,3.3,1,4.6,2.3c1.4,1.5,2.3,3.6,2,5.7
		c-0.2,1.4-0.6,2.5-1.5,3.4c-0.9,1-1.8,1.7-3.2,2.1c-2,0.6-4.2,0.7-6.9,0.4c-0.3,0-0.5-0.1-0.8-0.1c0.3,0.4,0.6,0.7,1.1,1.1
		c1,0.7,2.1,1.1,3.4,1.3c0.7,0.1,1.3,0,2.1-0.1c0.5-0.1,0.9-0.3,1.4-0.4l0,0l0,0c0.4-0.1,0.7-0.2,1-0.2
		C55.4,545.3,55.6,545.2,56,545.3 M52,539.3c0.9-0.2,1.6-0.5,2-0.8s0.6-0.7,0.6-1.2c0.1-0.8-0.1-1.3-0.8-2c-0.6-0.5-1.3-0.9-2.2-1
		c-1.7-0.2-2.9,0.2-4,1.3c-0.8,0.8-1.5,2-1.8,3.4c0.6,0.1,1.1,0.2,1.6,0.3C49.3,539.6,50.8,539.6,52,539.3"/>
</g>
<rect y="432" class="st0" width="120" height="72"/>
<g>
	<g>
		<path class="st8" d="M59,472.1c0.4,0,0.8-0.2,1.2-0.5c0.3-0.3,0.5-0.7,0.5-1.1c0-0.5-0.2-0.8-0.5-1.1c-0.3-0.3-0.7-0.4-1.2-0.4
			c-0.4,0-0.8,0.1-1.2,0.4s-0.5,0.7-0.5,1.1s0.2,0.8,0.5,1.1C58.2,472,58.5,472.1,59,472.1z"/>
		<path class="st8" d="M87.3,478.1c-0.1,0-0.2,0.1-0.3,0.3c-0.3,0.5-0.6,1-1.1,1.6c-0.7,1.1-1.5,2-2.4,2.6s-2.1,0.9-3.5,0.9
			c-1.3,0-2.3-0.5-3-1.4c1-0.4,1.9-0.9,2.9-1.6c0.5-0.4,0.9-0.7,1.2-1.2c0.3-0.4,0.5-0.8,0.5-1.3c0-0.7-0.3-1.1-0.7-1.4
			c-0.5-0.3-1.1-0.4-1.8-0.4c-1.3,0-2.4,0.5-3.4,1.3c-1,0.9-1.5,1.9-1.5,3l0,0c-0.4,0.5-0.9,1-1.4,1.5c-1.2,1.2-2.6,2-4.2,2.6v-7.8
			c0.3-0.4,0.8-1.1,1.4-2s1.2-1.9,1.9-3c0.7-1.1,1.3-2.2,1.7-3.4c0.4-1.1,0.7-2.1,0.7-3c0-0.6-0.2-1.2-0.6-1.7s-0.9-0.8-1.7-0.8
			c-1,0-1.9,0.5-2.9,1.4c-0.4,0.4-0.8,0.9-1.1,1.5s-0.6,1.2-0.8,1.8c-0.4,1.4-0.6,3-0.7,4.8c-0.1,1.5-0.2,3.7-0.2,6.5
			c-0.5,0.8-1.1,1.6-2,2.5c-0.6,0.6-1.1,1-1.7,1.4c-0.6,0.4-1.2,0.6-1.8,0.6c-0.5,0-0.9-0.2-1.1-0.5c-0.3-0.3-0.4-0.8-0.4-1.6v-3.6
			c0-0.7,0.1-1.2,0.4-1.3c0.2-0.2,0.3-0.3,0.5-0.3c0-0.1,0-0.2,0-0.4c-1,0.3-2,0.6-3.1,0.9v3.3c-0.6,0.9-1.2,1.7-2,2.3
			c-1.1,1-2.5,1.5-4.2,1.5c-1,0-2-0.6-3.2-1.2s-3-1.2-3.9-1.7c0.2-0.6,0.3-1,0.4-1.6c0.1-0.6,0.2-1.2,0.2-1.8c0-1.3-0.3-2.4-0.7-3.5
			c-0.5-1-1.1-2-1.8-2.8c-0.6-0.9-1.2-1.9-1.7-2.7c-0.5-0.9-0.8-1.8-0.8-2.8c0-1.7,0.5-3.1,1.6-4.1c1-1,3.2-1.5,5-1.5
			c1.9,0,4.3,0.5,5.6,1.6s1.9,2.5,2,4.4c0,1.1-0.3,2.1-0.9,2.9c-0.6,0.9-1.6,1.3-3,1.3c-0.7,0-2.1-0.2-2.7-0.7
			c-0.6-0.4-0.9-1.1-0.9-1.8c0-0.6,0.1-1,0.4-1.3c0.2-0.3,0.5-0.5,0.8-0.6c0.7-0.2,1-0.3,1.1-0.3c0-0.3-0.2-0.6-0.6-0.7
			c-0.4-0.1-0.7-0.2-0.9-0.2c-0.6,0-1.2,0.2-1.6,0.6c-0.5,0.4-0.8,0.9-0.8,1.5s0.2,1.2,0.6,1.8c0.3,0.5,0.8,0.9,1.3,1.3
			c1.2,0.7,2.4,1.1,3.8,1.1c1.5,0,2.7-0.4,3.6-1.2c0.9-0.8,1.3-1.8,1.3-3.2c-0.1-2.1-1-3.8-3-5c-1.9-1.2-3.9-1.8-6.1-1.8
			c-2.3,0-4.3,0.7-5.9,2c-1.7,1.3-2.5,3-2.6,5.3c0,1.3,0.3,2.5,1,3.5c0.6,1,1.4,2,2.2,3c0.8,0.9,1.6,1.9,2.2,2.9
			c0.6,1,0.9,2.2,0.9,3.5c0,0.4-0.1,0.8-0.2,1.3c-1-0.5-2-0.8-2.9-1.1c-1-0.3-2-0.4-3.2-0.4c-1,0-2.1,0.2-3.2,0.7
			c-0.5,0.2-0.9,0.5-1.3,0.9c-0.4,0.4-0.6,0.8-0.6,1.4c0,0.5,0.3,0.9,0.7,1.2c0.3,0.3,1.4,0.8,1.8,0.9s1.2,0.4,2.6,0.3
			c2.1-0.1,3.6-0.8,5.3-2.2c2.1,1.1,4.8,1.9,7.3,1.9c3.1,0,5.4-1.3,7-3.9v0.8c0,0.9,0.1,1.6,0.5,2.1c0.4,0.6,1,0.9,2,0.9
			c1.2,0,2.2-0.3,3.1-1c0.9-0.6,1.8-1.3,2.5-2.1c0.4-0.5,0.8-1,1.1-1.5c0,0.3,0,0.5,0,0.8l-0.1,4.3c-0.5,0-0.9-0.1-1-0.2
			s-0.2-0.3-0.2-0.5c0-0.5-0.2-0.8-0.7-0.8c-0.4,0-0.7,0.2-0.7,0.6c0,0.5,0.4,0.8,1,1c0.6,0.2,1.2,0.3,1.7,0.3v7.2
			c0,0.4-0.2,0.7-0.6,0.9v0.3c0.9-0.1,1.8-0.4,2.8-0.7v-7.9c1.2-0.5,2.1-0.9,2.7-1.3c0.6-0.3,1.3-0.9,2.1-1.8
			c0.2-0.2,0.5-0.6,0.8-0.9c0.2,1,0.7,1.7,1.5,2.2c1,0.6,2.1,0.9,3.4,0.9c2.4,0,4.3-0.9,5.9-2.5c0.6-0.6,1.1-1.3,1.5-2.1
			c0.5-0.7,0.7-1.2,0.7-1.3C87.4,478.3,87.4,478.2,87.3,478.1z M68.7,473.3c0.1-6.6,1.1-9.8,2.8-9.5c0.9,0,1.4,0.7,1.4,2.1
			c0,1.6-0.5,3.4-1.3,5.3c-0.9,1.9-1.8,3.5-2.8,4.9h-0.1V473.3L68.7,473.3z M38.3,483.8c-0.8,0-1.6-0.2-2.5-0.6
			c-0.4-0.2-0.8-0.5-1.1-0.8s-0.5-0.6-0.5-1c0-0.5,0.3-0.9,0.8-1.1s0.9-0.3,1.4-0.3c1,0,2.1,0.3,3.3,0.8c1.1,0.5,2.3,1.1,3.4,1.6
			C41.8,483.3,40.2,483.8,38.3,483.8z M76.2,479.5c0-0.6,0.2-1.2,0.5-1.8c0.3-0.5,0.9-0.8,1.7-0.8c1.1,0,1.6,0.5,1.6,1.4
			c0,0.8-0.4,1.5-1,2.1s-1.4,1-2.2,1.4C76.4,481.1,76.2,480.3,76.2,479.5z"/>
	</g>
	<g>
		<path class="st1" d="M35.5,457c-1,0-1.7-0.2-2.1-0.6c-0.4-0.4-0.5-1.2-0.5-2.3v-9.8c0-1.4-0.6-2.1-1.7-2.1H30v12
			c0,1.7,0.4,3,1.3,3.9c0.9,0.9,2.1,1.3,3.8,1.3h1.1c1.1,0,1.9-0.2,2.3-0.6c0.4-0.3,0.6-0.8,0.6-1.5v-1c-0.9,0.3-1.8,0.5-2.9,0.5
			L35.5,457L35.5,457z"/>
		<path class="st1" d="M42,445.5h-1.3v12.1c0,0.6,0.2,1,0.6,1.4c0.3,0.3,0.7,0.5,1.2,0.5h1.1V447c0-0.4-0.2-0.8-0.5-1.1
			C42.7,445.6,42.3,445.5,42,445.5z"/>
		<path class="st1" d="M56.1,445.5h-1.6c-0.5,3.4-1.6,6.8-3.2,10.2c-1.4-2.9-2.4-5.8-2.8-8.6c-0.2-1-0.8-1.5-1.8-1.5h-1.6
			c0.3,2.2,0.9,4.4,1.8,6.8c0.8,2.3,1.8,4.3,3,6.1c0.5,0.7,1.2,1.1,2,1.1h0.3c1-1.6,2.1-3.8,3.3-6.5c0.5-1.1,0.9-2.3,1.3-3.7
			c0.4-1.4,0.6-2.2,0.6-2.6s-0.1-0.7-0.3-0.9C56.7,445.5,56.4,445.5,56.1,445.5z"/>
		<path class="st1" d="M60.3,445.5H59v12.1c0,0.6,0.2,1,0.6,1.4c0.3,0.3,0.7,0.5,1.2,0.5h1.1V447c0-0.4-0.2-0.8-0.5-1.1
			C61,445.6,60.7,445.5,60.3,445.5z"/>
		<path class="st1" d="M74.5,445.5h-1.3v9.6l-0.8-1.9l-2.5-4.9c-1-1.9-2.3-2.8-4-2.8h-1.4v12.1c0,0.6,0.2,1,0.6,1.4
			c0.3,0.3,0.7,0.5,1.2,0.5h1.1v-10.3c0.2,0.3,0.5,0.8,0.9,1.6l2.6,4.9c0.8,1.5,1.5,2.6,2.3,3.1c0.5,0.4,1.1,0.6,1.8,0.6h1v-12.3
			c0-0.4-0.2-0.8-0.5-1.1C75.2,445.6,74.9,445.5,74.5,445.5z"/>
		<path class="st1" d="M89.6,453c-0.3-0.3-0.6-0.4-1-0.4h-1.4c0.1,0.7,0.2,1.4,0.2,2v1.1c0,0.9-0.6,1.3-1.7,1.3
			c-1.4,0-2.4-0.4-3.2-1.1c-0.9-0.8-1.3-2.1-1.3-3.8c0-1.3,0.4-2.4,1.3-3.2c0.9-0.9,1.9-1.3,3.2-1.3c1.7,0,3.1,0.4,4,1.2h0.1v-1
			c0-0.7-0.3-1.4-0.9-1.9c-0.7-0.6-1.7-0.9-2.9-0.9c-2.4,0-4.2,0.7-5.7,2.2c-1.4,1.4-2.1,3.1-2.1,5.2s0.7,3.8,2.1,5.1
			c1.3,1.3,3,1.9,4.9,1.9c3.1,0,4.7-1.2,4.7-3.5v-2.2C90,453.6,89.9,453.3,89.6,453z"/>
	</g>
</g>
<rect y="288" class="st0" width="120" height="72"/>
<g>
	<g>
		<polygon class="st9" points="33,328.2 34.7,328.7 35.1,327.8 34.5,328 34.2,327.3 33.7,327.7 33.2,327.3 		"/>
		<path class="st10" d="M44.9,335.5c-0.1,0-1.6-0.3-3.6-0.1c-2.5,0.3-4.6,0.5-6.2,2c-1.6-1.5-3.7-1.7-6.2-2c-2-0.2-3.5,0.1-3.6,0.1
			c-0.3,0-0.5,0.3-0.4,0.6c0,0.3,0.3,0.5,0.6,0.4c0,0,1.5-0.3,3.3-0.1c2.5,0.3,4.4,0.5,5.9,2.1l0,0l0,0l0,0l0,0l0,0l0,0l0,0l0,0l0,0
			l0,0l0,0l0,0l0,0l0,0l0,0l0,0l0,0l0,0l0,0l0,0l0,0l0,0l0,0l0,0l0,0l0,0l0,0l0,0l0,0l0,0l0,0l0,0l0,0l0,0l0,0l0,0l0,0l0,0l0,0
			c1.5-1.5,3.5-1.8,5.9-2.1c1.8-0.2,3.3,0.1,3.3,0.1c0.3,0,0.5-0.1,0.6-0.4C45.4,335.8,45.2,335.5,44.9,335.5"/>
		<path class="st11" d="M38.5,330.5h-0.2v0.3C38.4,330.7,38.5,330.7,38.5,330.5L38.5,330.5z"/>
		<path class="st11" d="M39.2,330.3v-0.2H39v0.2h0.1C39.2,330.3,39.2,330.3,39.2,330.3"/>
		<path class="st11" d="M40.2,330.1H40v0.3c0.1,0,0.2,0.1,0.3,0.1L40.2,330.1z"/>
		<path class="st12" d="M39.9,334.7c3.2-0.6,2.8-1.4,2.3-2.4c-0.4-0.9-1.2-1.6-1.9-1.9l0.1,0.6h-0.2l-0.1-0.7
			c-0.3-0.1-0.5-0.1-0.7-0.1l0.2,0.8h-0.2l-0.2-0.8c-0.2,0-0.4,0.1-0.5,0.3v0.7h-0.2v-0.5c-0.6,0.6-1,1.6-1,2.4
			C37.1,334.3,37.1,335.2,39.9,334.7"/>
		<path class="st10" d="M39.9,334.7c-2.8,0.5-2.8-0.4-2.7-1.5c0.1-0.8,0.4-1.8,1-2.4v0.5h0.2v-0.7c0.2-0.1,0.3-0.2,0.5-0.3l0.2,0.8
			h0.2l-0.2-0.8c0.2,0,0.5,0,0.7,0.1l0.1,0.7h0.2l-0.1-0.6c0.8,0.3,1.5,1,1.9,1.9C42.6,333.3,43.1,334.2,39.9,334.7 M32.8,331
			c-2.7-0.6-2.5-1-2.1-1.6c0.4-0.5,1.5-1.1,2.6-0.9c1.1,0.2,2,1.1,2.3,1.9C35.8,331.1,36,331.7,32.8,331 M33.3,327.5l0.4,0.4
			l0.5-0.4l0.3,0.6L35,328l-0.3,0.6c-0.3-0.2-0.7-0.3-1.1-0.4l0,0l0,0l0,0l0,0l0,0l0,0c-0.1,0-0.2,0-0.4,0L33.3,327.5z M44.3,332
			c0.7,0,0.5-0.3,0.5-0.3c-0.1-0.3-0.6-0.1-0.6-0.1h0.1c0.4-0.1,0.2-0.4,0.2-0.4c-0.2-0.2-0.6,0.1-0.6,0.1v-0.1c0.2-0.5,0-0.5,0-0.5
			c-0.4-0.2-0.6,0.8-0.6,0.8v-0.1c0-0.6-0.3-0.6-0.3-0.6c-0.3,0-0.2,0.8-0.2,0.8c0,0.2,0,0.4-0.1,0.6c-1-1.9-2.5-2.5-3.7-2.3l0,0
			l0,0l0,0l0,0l0,0l0,0c-0.9,0.2-1.7,0.7-2.3,1.8l0,0c-0.1,0.1-0.1,0.3-0.2,0.5c0-0.1,0-0.2,0-0.3c0.1-0.1,0.1-0.1,0.1-0.1
			c-0.4-1.4-1.2-2.4-2-3l0.5-0.9l-0.7,0.1l-0.3-0.7l-0.6,0.4l-0.6-0.6l-0.2,1c-1.4-0.1-3,0.6-4.2,2.5c-0.1-0.2-0.2-0.4-0.3-0.6
			c0,0-0.2-0.8-0.5-0.9c0,0-0.4-0.1-0.1,0.7v0.1c0,0-0.6-1-0.9-0.6c0,0-0.3,0.2,0.2,0.6L27,330c0,0-0.6-0.2-0.7,0.1
			c0,0-0.1,0.3,0.3,0.3h0.1c0,0-0.6,0.1-0.6,0.4c0,0,0,0.5,0.7,0.2c0,0-0.7,0.4-0.4,0.7c0,0,0.3,0.2,0.8-0.3l0.2-0.2l0.4,0.2
			c-0.2,0.4-0.3,0.7-0.5,1.2c-0.2,0.6-0.5,1.6-0.6,2.2c0.5,0,1.2,0,1.8,0.1c2.5,0.3,4.6,0.5,6.2,2l0.1-0.1c0.4-0.3,0.8-0.6,1.3-0.9
			c1.4-0.7,3-0.8,4.8-1c1-0.1,1.8-0.1,2.4,0c-0.1-0.5-0.2-1-0.4-1.5c0-0.1-0.1-0.2-0.1-0.4l0.6-0.6l0.3,0.1c0.6,0.2,0.7,0,0.7,0
			C45,332.2,44.3,332,44.3,332"/>
		<g>
			<g>
				<g>
					<defs>
						<path id="SVGID_1_" d="M31.2,335.2c1,0.2,1.9,0.4,2.7,0.9c0.8-0.5,1.7-1.1,2.4-1.9c0-1,0.2-1.9,0.5-2.6l0,0
							C36.3,332.3,33.9,334.2,31.2,335.2"/>
					</defs>
					<clipPath id="SVGID_2_">
						<use xlink:href="#SVGID_1_"  style="overflow:visible;"/>
					</clipPath>
					
						<linearGradient id="SVGID_3_" gradientUnits="userSpaceOnUse" x1="-961.1753" y1="306.979" x2="-960.8706" y2="306.979" gradientTransform="matrix(18.5485 0 0 -18.5485 17859.5977 6027.8491)">
						<stop  offset="0" style="stop-color:#F08B4B"/>
						<stop  offset="4.926110e-03" style="stop-color:#F08B4B"/>
						<stop  offset="0.262" style="stop-color:#E8604D"/>
						<stop  offset="0.6017" style="stop-color:#DE2C4E"/>
						<stop  offset="0.8583" style="stop-color:#D80C50"/>
						<stop  offset="1" style="stop-color:#D60050"/>
					</linearGradient>
					<rect x="31.2" y="331.6" class="st13" width="5.7" height="4.5"/>
				</g>
			</g>
		</g>
		<polyline class="st14" points="36.9,331.6 36.9,331.6 36.9,331.6 36.9,331.6 36.9,331.6 		"/>
		<path class="st12" d="M32.8,331.2c3.2,0.7,3,0,2.8-0.7c-0.3-0.9-1.2-1.7-2.3-1.9c-1.1-0.2-2.2,0.4-2.6,0.9S30.1,330.6,32.8,331.2
			 M33.9,329.9c0-0.1,0.1-0.1,0.1-0.1c0.1,0,0.1,0.1,0.1,0.1c0,0.1-0.1,0.1-0.1,0.1C33.9,330,33.9,330,33.9,329.9 M32.2,329.5
			c0-0.1,0.1-0.1,0.1-0.1c0.1,0,0.1,0.1,0.1,0.1c0,0.1-0.1,0.1-0.1,0.1C32.2,329.7,32.2,329.6,32.2,329.5"/>
		<path class="st15" d="M32.3,329.7c0.1,0,0.1,0,0.1-0.1s0-0.1-0.1-0.1s-0.1,0-0.1,0.1C32.2,329.6,32.2,329.7,32.3,329.7"/>
		<path class="st15" d="M34,330c0.1,0,0.1,0,0.1-0.1s0-0.1-0.1-0.1s-0.1,0-0.1,0.1S33.9,330,34,330"/>
		<path class="st12" d="M33.6,332c-0.9,0.2-1.4-0.2-1.4-0.2h-0.1v0.1c0,0,0.3,0.2,0.7,0.3c0.2,0,0.5,0,0.8,0
			C33.6,332.2,33.7,332.2,33.6,332C33.6,332,33.6,332,33.6,332"/>
		<path class="st15" d="M38.8,332.2c0,0.1,0,0.1-0.1,0.1s-0.1,0-0.1-0.1s0-0.1,0.1-0.1C38.7,332.1,38.8,332.1,38.8,332.2"/>
		<path class="st15" d="M40.5,331.9c0,0.1,0,0.1-0.1,0.1s-0.1,0-0.1-0.1s0-0.1,0.1-0.1C40.4,331.8,40.5,331.8,40.5,331.9"/>
		<path class="st15" d="M39.9,333.3c-0.3,0-0.5,0-0.6,0c0,0,0,0,0-0.1c0,0,0,0,0.1,0c0,0,0.5,0.2,1-0.2h0.1v0.1
			C40.2,333.2,40,333.3,39.9,333.3"/>
		<path class="st16" d="M38,332.8c0,0,0.7-0.3,0.8,0.3c0.1,0.4,0,0.5-0.6,0.5C38.2,333.5,37.1,333.3,38,332.8"/>
		<path class="st16" d="M41.4,332.2c0,0-0.7-0.2-0.8,0.4c-0.1,0.5,0,0.5,0.6,0.4C41.3,333,42.4,332.7,41.4,332.2"/>
		<path class="st5" d="M38.1,333.1c0.1,0,0.1,0,0.1-0.1s0-0.1-0.1-0.1S38,333,38,333L38.1,333.1"/>
		<path class="st5" d="M41.3,332.5c0.1,0,0.1,0,0.1-0.1s0-0.1-0.1-0.1s-0.1,0-0.1,0.1S41.3,332.5,41.3,332.5"/>
		<path class="st16" d="M31.3,329.8c0,0,0.7-0.1,0.7,0.5c0,0.5-0.2,0.5-0.7,0.3C31.2,330.5,30.2,330,31.3,329.8"/>
		<path class="st5" d="M31.3,330.1c0.1,0,0.1,0,0.1,0s0-0.1-0.1-0.1s-0.1,0-0.1,0S31.2,330.1,31.3,330.1"/>
		<path class="st16" d="M35,330.6c0,0-0.6-0.4-0.8,0.1c-0.2,0.4-0.1,0.5,0.4,0.6C34.5,331.3,35.7,331.4,35,330.6"/>
		<path class="st5" d="M34.7,330.8C34.8,330.8,34.8,330.8,34.7,330.8c0.1,0,0.1-0.1,0-0.1s-0.1,0-0.1,0
			C34.6,330.8,34.7,330.8,34.7,330.8"/>
		<path class="st17" d="M39.5,332.6L39.5,332.6c0,0-0.1-0.2,0-0.3c0-0.1,0.1-0.1,0.2-0.1c0.1,0,0.2,0,0.3,0.1c0,0.1,0,0.2,0,0.2l0,0
			l0,0v-0.1c0,0-0.1-0.1-0.2-0.1c-0.1,0-0.2,0-0.2,0.1C39.5,332.4,39.5,332.6,39.5,332.6L39.5,332.6L39.5,332.6"/>
		<path class="st17" d="M33.3,330.4L33.3,330.4L33.3,330.4c0,0,0.1-0.2,0-0.3c0-0.1-0.1-0.1-0.2-0.1c-0.1,0-0.2,0-0.2,0v0.1l0,0l0,0
			c0,0,0-0.1,0-0.2s0.1-0.1,0.3,0c0.1,0,0.2,0.1,0.2,0.2C33.4,330.2,33.3,330.4,33.3,330.4L33.3,330.4"/>
	</g>
	<g>
		<g>
			<path class="st10" d="M89.5,313.7c-0.5,0-0.7,0.1-0.7,0.3v1.1c0,1.6-0.2,3.1-0.5,4.6c0,0.3,0.3,0.5,0.6,0.6
				c0.5,0,0.7-0.2,0.8-0.5c0.4-1.6,0.5-3.4,0.5-5.5C90.2,314,89.9,313.8,89.5,313.7"/>
			<path class="st10" d="M83.9,313.7c-0.9,0-1.6,0.3-2.1,0.8c-0.6,0.5-0.9,1.3-0.9,2.3s0.3,1.8,0.9,2.4c0.6,0.5,1.3,0.8,2.1,0.8
				c0.8,0,1.5-0.3,2.1-0.8c0.6-0.6,0.9-1.4,0.9-2.4c0-0.9-0.3-1.7-0.9-2.3C85.5,314,84.7,313.7,83.9,313.7"/>
		</g>
		<g>
			<path class="st10" d="M101.6,316.4h-1h-0.2h-0.3l0,0h-0.5l0,0c0-0.7-0.1-1.4-0.2-1.9c0-0.2-0.3-0.4-0.7-0.4
				c-0.5,0-0.7,0.2-0.7,0.6c0.1,1,0.1,1.9,0.1,2.6c0,0.8,0,1.6-0.1,2.3c0,0.3,0.2,0.5,0.7,0.5c0.4,0,0.6-0.1,0.7-0.3
				c0.1-0.6,0.2-1.3,0.2-2.1c0.2,0,0.4,0,0.7,0c0.5,0,0.8,0,1.1,0c0.3,0,0.5-0.2,0.5-0.5C102,316.6,101.9,316.4,101.6,316.4"/>
			<path class="st10" d="M97,319.7c0.2-0.2,0.3-0.4,0.2-0.8c-0.1-0.3-0.3-0.5-0.6-0.5c0,0-0.1,0-0.2,0c-0.4,0.1-0.9,0.3-1.5,0.4
				s-1.1,0.1-1.4,0.1c-0.1,0-0.2,0-0.2,0c0-0.1,0-0.3-0.1-0.5c0-0.3,0-0.4,0-0.4c0-0.1,0-0.1,0-0.1l1.3-0.2c0.5-0.1,0.9-0.2,1.2-0.3
				c0.2,0,0.3-0.2,0.3-0.3c0.2-0.5,0.3-1.2,0.3-1.9c0-0.4-0.1-0.6-0.3-0.7l-2.8-1.1h-0.1c-0.3,0-0.6,0.1-0.7,0.4
				c0,0.1-0.1,0.3-0.1,0.4c0,0.2,0.1,0.3,0.3,0.4l2.2,0.9l0,0c0,0.2,0,0.5-0.1,0.8c0,0-0.1,0,0,0c-1,0.1-1.8,0.2-2.2,0.4
				c-0.4,0.1-0.6,0.3-0.7,0.6c0,0.3-0.1,0.6-0.1,0.9c0,0.7,0.1,1.3,0.2,1.8c0.1,0.3,0.5,0.5,1.1,0.5s1.3-0.1,2.2-0.2
				C96.2,320,96.8,319.9,97,319.7"/>
			<path class="st10" d="M97.3,320.7c-0.2,0-0.3,0-0.4,0c-1.1,0.2-1.7,1-1.7,1.9c0,0.6,0.2,1.1,0.6,1.4c0.4,0.4,0.9,0.6,1.4,0.6h0.4
				c1-0.2,1.7-1,1.7-2c0-0.6-0.2-1.1-0.6-1.5C98.3,320.9,97.8,320.7,97.3,320.7"/>
		</g>
	</g>
	<g>
		<g>
			<path class="st18" d="M68.1,331.5c-0.1-1-0.4-1.5-1.1-1.4l-1.5,0.2l0,0c-1.2,0.2-2.1,0.3-2.7,0.4c-0.6,0.1-0.9,0.6-0.8,1.5
				c0.1,1,0.4,1.5,1.1,1.4l1.5-0.2l0,0c1.2-0.2,2.1-0.3,2.7-0.4C68,332.9,68.2,332.4,68.1,331.5"/>
			<path class="st10" d="M67.3,332.7H67c-0.5,0.1-1.2,0.2-2,0.3l0,0l-1.9,0.3H63c-0.3,0-0.5-0.6-0.5-1.1c-0.1-0.9,0.3-1,0.4-1.1h0.3
				c0.5-0.1,1.2-0.2,2-0.3l0,0l1.9-0.3h0.1c0.3,0,0.5,0.6,0.5,1.1C67.8,332.5,67.5,332.6,67.3,332.7 M67,329.8l-1.1,0.1l0,0
				l-0.4,0.1c-0.7,0.1-1.2,0.2-1.8,0.2c-0.2-1.5-0.5-3-0.8-4.4c-0.1-0.8-0.6-1.1-1.6-1c-1,0.2-1.5,0.7-1.4,1.4
				c0.9,3.7,1.2,8.1,1,13.1c0.1,0.8,0.6,1.2,1.6,1.1s1.5-0.5,1.5-1.3c0.1-1.7,0.1-3.3,0-4.9v-0.3h0.1l0,0l0.4-0.1
				c1-0.1,1.8-0.3,2.4-0.3h0.3c0.6-0.1,1.2-0.6,1.1-1.9C68.4,329.8,67.5,329.7,67,329.8"/>
			<path class="st10" d="M58.9,335.3c-0.3-0.1-0.6-0.2-1-0.2l-7,0.6c-0.3,0-0.3,0-0.3-0.6v-6.9c0-0.3-0.7-1-1.7-1
				c-0.8,0-1.5,0.7-1.5,1.1v8.4c0,1.2,0.9,2.2,2.4,2.2l8.6-0.7c0.9-0.1,1.3-0.6,1.2-1.6C59.4,335.8,59.2,335.4,58.9,335.3"/>
			<path class="st10" d="M63.4,331.8c-0.2,0-0.3,0.1-0.3,0.3c0,0.2,0.1,0.3,0.3,0.3s0.3-0.1,0.3-0.3
				C63.8,331.9,63.6,331.8,63.4,331.8"/>
		</g>
		<g>
			<path class="st19" d="M91.9,331.5c0-1-0.3-1.5-0.9-1.5h-1.5l0,0c-1.2,0-2.1,0-2.8,0c-0.6,0.1-0.9,0.5-0.9,1.4
				c0,1,0.3,1.5,0.9,1.5h1.5l0,0c1.2,0,2.1,0,2.8,0C91.6,332.8,91.9,332.3,91.9,331.5"/>
			<path class="st20" d="M82.5,342.9c-0.9,0-1.4,0.5-1.4,1.2c0,0.8,0.5,1.3,1.2,1.3s1.4-0.3,1.4-1.1C83.6,343.1,83,342.9,82.5,342.9
				"/>
			<path class="st10" d="M81.8,337.7c0.5-0.3,0.7-0.9,0.5-1.7c-0.1-0.7-0.6-1-1.3-1c-0.1,0-0.3,0-0.4,0.1c-0.8,0.3-1.9,0.6-3.3,0.9
				c-1.3,0.1-2.4,0.2-3,0.2c-0.3,0-0.4,0-0.3,0c0-0.2-0.1-0.6-0.1-1.2s0-0.9,0-0.9c0-0.1-0.1-0.2,0-0.3l2.9-0.5
				c1.2-0.1,2-0.3,2.6-0.6c0.4-0.1,0.6-0.4,0.8-0.7c0.5-1.2,0.7-2.6,0.7-4.3c0-0.9-0.2-1.3-0.6-1.5l-6.2-2.5l-0.3-0.1
				c-0.7,0-1.2,0.3-1.5,0.9c-0.1,0.3-0.1,0.6-0.1,0.9c0.1,0.5,0.3,0.8,0.6,0.9l4.9,1.9l0,0c0.1,0.5,0,1.1-0.2,1.8
				c-0.1,0-0.1,0-0.1,0c-2.3,0.2-3.9,0.5-4.9,0.8c-0.9,0.2-1.4,0.6-1.5,1.2s-0.1,1.3-0.1,2c0,1.6,0.2,2.9,0.5,4
				c0.3,0.7,1.1,1.1,2.4,1.1s2.9-0.1,4.8-0.5C80.1,338.3,81.2,338,81.8,337.7"/>
			<path class="st10" d="M90.9,332.5h-0.3c-0.5,0-1.2,0-2,0l0,0h-0.9h-1.1c-0.1,0-0.2,0-0.2-0.1c-0.1-0.1-0.2-0.3-0.2-1
				c0-0.9,0.4-1,0.6-1H87c0.2,0,0.4,0,0.6,0c0.4,0,0.9,0,1.5,0l0,0h2c0.1,0,0.2,0,0.2,0.1c0.1,0.1,0.2,0.3,0.2,1
				C91.5,332.4,91.1,332.4,90.9,332.5 M91.8,329.9c-0.2-0.2-0.5-0.3-0.8-0.3h-0.1h-1.1l0,0h-0.4c-0.7,0-1.3,0-1.9,0
				c0-1.5-0.2-2.8-0.3-3.9c-0.1-0.5-0.6-0.8-1.5-0.9c-1,0-1.6,0.4-1.6,1.2c0.1,2.3,0.2,4.2,0.2,5.8c0,1.9-0.1,3.6-0.2,5.2
				c0,0.7,0.5,1,1.5,1c0.9,0,1.4-0.2,1.5-0.6c0.3-1.3,0.4-2.7,0.4-4.2l0,0l0,0H88c1,0,1.8,0,2.5,0H91c0.6-0.1,1.3-0.4,1.3-1.8
				C92.3,330.7,92.1,330.2,91.8,329.9"/>
			<path class="st10" d="M87.3,331.2c-0.2,0-0.3,0.1-0.3,0.3c0,0.2,0.1,0.3,0.3,0.3c0.2,0,0.3-0.1,0.3-0.3
				C87.6,331.3,87.5,331.2,87.3,331.2"/>
			<path class="st10" d="M82.3,346.2c-1.2,0-2-0.9-2-2.1s0.9-2,2.2-2c1.2,0.1,1.9,0.9,2,2.2C84.5,345.4,83.6,346.2,82.3,346.2
				 M82.5,339.7c-0.3,0-0.7,0-1,0.1c-2.5,0.5-3.7,2.3-3.7,4.3c0,1.3,0.4,2.4,1.2,3.2c0.9,0.9,1.9,1.3,3.1,1.3h1
				c2.3-0.5,3.9-2.2,3.9-4.4c-0.1-1.4-0.5-2.5-1.4-3.3C84.7,340.2,83.6,339.7,82.5,339.7"/>
		</g>
	</g>
	<g>
		<g>
			<path class="st21" d="M51.2,305.4c0.6-0.2,1-0.2,1.3,0.1c0.3,0.2,0.5,0.4,0.7,0.6l0,0c0,0,0,0,0.1,0.1c0.8,0.7,1.3,0.9,1.8,1.2
				c0.8,0.4,2.1,1,3.7,1.7c0.2,0.1,0.5,0.4,0.5,1c0.1,0.9-0.4,1.5-1.5,1.8c-0.4,0-0.8,0-1.1-0.2c-1.9-0.7-3.9-1.9-6-3.6
				c-0.3-0.2-0.5-0.4-0.6-0.7C49.9,306.4,50.3,305.7,51.2,305.4"/>
			<path class="st10" d="M60.6,314c-3.5,0.4-8.2,0.6-13.9,0.6H43c-0.3,0-0.9,0.5-0.9,1.4c0,0.8,0.5,1.4,1.2,1.4
				c1,0.1,2.5,0.1,4.4,0.1h2.7l0.2,5.6c0,0.6,0.5,0.9,1.4,0.9c1.1,0,1.7-0.3,1.7-1l-0.1-5.5c3.2-0.1,5.6-0.2,7.3-0.4
				c0.7-0.1,1-0.7,1-1.7C61.9,314.8,61.2,314,60.6,314"/>
			<path class="st10" d="M51.3,305.8c0.4-0.2,0.6-0.2,0.8,0l0.8,0.7c0.6,0.5,1,0.7,1.4,1c0.2,0.1,0.3,0.2,0.5,0.3l0,0
				c0.8,0.4,2,1,3.7,1.7c0.2,0.1,0.3,0.3,0.3,0.7c0,0.3,0.1,1.1-1.2,1.3c-0.1,0-0.2,0-0.2,0c-0.1,0-0.4,0-0.6-0.1h-0.1
				c-1.8-0.7-3.7-1.9-5.9-3.6h-0.1c-0.2-0.1-0.3-0.3-0.5-0.5C50.3,306.5,50.5,306,51.3,305.8 M45.9,312.9c0.3,0,0.6-0.1,1-0.3
				c1.7-1.4,2.9-2.8,3.8-4.1c2.1,1.7,4,2.8,5.8,3.5c0.3,0.2,0.7,0.2,1,0.2c0.1,0,0.2,0,0.3,0h0.1c1.3-0.3,2-1.1,1.8-2.2
				c0-0.9-0.5-1.2-0.7-1.3c-1.8-0.8-2.9-1.3-3.7-1.7c-0.2-0.1-0.3-0.2-0.5-0.3c-0.4-0.2-0.8-0.5-1.3-0.9l-0.3-0.3l-0.2-0.2l-0.3-0.2
				c-0.1-0.1-0.2-0.2-0.4-0.3l0,0c0.1-0.4,0.3-1.4,0.3-2.3c0-1.1-0.5-1.7-1.6-1.7c-0.9,0-1.4,0.4-1.4,1.2c-0.2,1.9-0.8,3.5-1.6,4.8
				c-1.2,1.5-2.4,2.8-3.6,3.7c-0.1,0.3-0.2,0.5-0.2,0.7c0,0.5,0.2,1,0.6,1.4C45.2,312.9,45.5,312.9,45.9,312.9"/>
			<path class="st10" d="M51.6,307.1c0.2,0,0.3-0.1,0.3-0.3c0-0.2-0.1-0.3-0.3-0.3s-0.3,0.1-0.3,0.3S51.5,307.1,51.6,307.1"/>
		</g>
		<g>
			<path class="st17" d="M26.4,311l-0.1-0.1c0,0,0,0,0-0.1c-0.2-0.2-0.4-0.4-0.6-0.6l-0.2-0.1c-0.1-0.1-0.2-0.1-0.2-0.2
				c-0.3-0.2-0.6-0.3-1-0.3c-0.1,0-0.2,0-0.3,0c-0.6,0.1-1.1,0.4-1.4,0.8l-0.1,0.1c-0.5,0.6-0.7,1.3-0.5,2.3c0.1,1,0.5,1.7,1.2,2.1
				l0.1,0.1c0.2,0.1,0.3,0.2,0.5,0.3l0,0c0.1,0,0.1,0,0.2,0h0.2c0.1,0,0.1,0,0.2,0h0.1h0.1h0.1c0,0,0.1,0,0.2,0
				c0.6-0.1,1-0.4,1.4-0.9c0.1-0.2,0.2-0.3,0.3-0.5c0,0,0-0.1,0.1-0.1v-0.1c0.2-0.5,0.2-1,0.1-1.6C26.7,311.7,26.6,311.3,26.4,311"
				/>
			<path class="st5" d="M24.4,316.2c-0.1,0-0.1,0-0.2,0C24.2,316.2,24.3,316.2,24.4,316.2"/>
			<path class="st5" d="M24.7,316.2c-0.1,0-0.2,0-0.3,0C24.5,316.2,24.6,316.2,24.7,316.2"/>
			<path class="st5" d="M27.6,314v0.1C27.5,314.1,27.6,314.1,27.6,314"/>
			<path class="st5" d="M24,316.2c0,0-0.1,0-0.2,0C23.9,316.1,24,316.2,24,316.2"/>
			<path class="st5" d="M27.1,310.4l0.1,0.1C27.2,310.4,27.1,310.4,27.1,310.4"/>
			<path class="st5" d="M23.6,316.1C23.6,316.1,23.6,316,23.6,316.1C23.6,316,23.6,316.1,23.6,316.1"/>
			<path class="st10" d="M38.3,304c-1,0.2-1.5,0.5-1.5,0.9l0.4,2.8c0.5,3.5,0.6,6.8,0.4,9.8c0.2,0.8,0.8,1.2,1.6,1.1
				c1-0.1,1.5-0.6,1.5-1.4c0.2-3.7,0-7.7-0.7-12.2C39.8,304.3,39.3,303.9,38.3,304"/>
			<path class="st10" d="M30.9,312.9c0-0.4,0-0.9-0.1-1.3v-0.3l2.6-0.3c0,0.5,0.1,1.1,0.1,1.6L30.9,312.9z M27.6,314v0.1
				c0,0.1-0.1,0.2-0.1,0.2c-0.1,0.2-0.3,0.4-0.4,0.6c-0.5,0.7-1.2,1.1-1.9,1.2c-0.1,0-0.2,0-0.3,0l0,0c-0.1,0-0.2,0-0.3,0
				c0,0,0,0-0.1,0s-0.1,0-0.2,0h-0.1c0,0-0.1,0-0.2,0s-0.1,0-0.2-0.1l0,0c-0.3-0.1-0.6-0.3-0.8-0.5c-0.9-0.6-1.4-1.5-1.5-2.7l0,0
				l0,0c-0.2-1.2,0-2.2,0.7-3l0,0c0.4-0.7,1.1-1,2-1.2c0.1,0,0.3,0,0.4,0c0.5,0,1,0.2,1.5,0.5c0.1,0.1,0.2,0.1,0.3,0.2l0,0l0,0
				c0.3,0.2,0.6,0.5,0.8,0.8c0,0,0.1,0.1,0.1,0.2l0.1,0.1c0.3,0.4,0.4,0.9,0.5,1.5C27.8,312.8,27.8,313.4,27.6,314 M35.8,305.7
				c-0.1-0.8-0.7-1.2-1.7-1.1s-1.5,0.5-1.5,0.9l0.3,2.3v0.3l-3.5,0.3c-0.2-0.2-0.3-0.4-0.5-0.6c-0.3-0.2-0.5-0.5-0.8-0.7
				c-1.4-1-3-1.4-4.6-1.2c-1.6,0.2-2.9,0.9-3.9,1.9c-0.1,0.1-0.3,0.3-0.4,0.5c-1.1,1.3-1.5,3-1.2,5.1s1.2,3.6,2.6,4.6
				c1.4,0.9,3,1.3,4.8,1c1.6-0.2,3-1,4.1-2.3c0.2-0.3,0.4-0.6,0.6-0.9c0.1,0,0.2,0,0.3,0l3.1-0.3c0,0.9,0,1.8-0.1,2.6
				c0.2,0.8,0.8,1.2,1.6,1.1c1-0.1,1.5-0.6,1.5-1.4c0.2-3.1,0.1-6.4-0.4-10C36,307.1,35.9,306.4,35.8,305.7"/>
		</g>
		<g>
			<path class="st10" d="M79.2,300.8c0-0.3-0.1-0.6-0.3-0.8c-0.3-0.3-0.7-0.5-1.2-0.5c-1,0-1.5,0.5-1.5,1.4c0.1,0.8,0.2,1.6,0.2,2.5
				c0.1,2.1,0,4.4-0.6,6.7c0,0.6,0.6,1.3,1.5,1.3c0.8,0,1.3-0.4,1.5-1.1c0.5-2.4,0.7-4.7,0.6-6.8C79.4,302.6,79.3,301.7,79.2,300.8"
				/>
			<path class="st10" d="M73.8,308.8c-0.1-0.7-0.3-1.1-0.6-1.2c-0.3-0.1-0.6-0.2-1-0.2L66,308c-0.3,0-0.3,0-0.3-0.6v-6.9
				c0-0.3-0.7-1-1.7-1c-0.8,0-1.5,0.7-1.5,1.1v8.4c0,1.2,0.9,2.2,2.4,2.2l7.8-0.7C73.5,310.3,73.9,309.7,73.8,308.8"/>
			<path class="st10" d="M75.6,315.8l-0.2,2.4v0.1c-0.1,0.5-0.5,0.4-0.5,0.4c-3.7-0.2-3.7-0.3-3.7-0.7l0.2-2.3
				c0-0.6,0.4-0.6,0.5-0.6l3.3,0.2C75.6,315.3,75.6,315.6,75.6,315.8 M76.6,313l-6.2-0.3c-1,0-1.6,0.6-1.7,1.8l-0.3,4.5
				c-0.1,1.2,0.5,1.8,1.7,1.8l6,0.3c1,0.1,1.6-0.5,1.8-1.7l0.5-4.5C78.4,313.7,77.8,313.1,76.6,313"/>
			<path class="st22" d="M72,317.7c0.3,0,1,0.1,2.6,0.2l0.2-1.9l-2.6-0.2L72,317.7z"/>
		</g>
	</g>
</g>
<g>
	<rect y="576" class="st0" width="120" height="72"/>
	<g id="생삶플러스" transform="translate(-242.119 -1171.07)">
		<g id="그룹_708" transform="translate(243.912 1171.07)">
			<g id="그룹_318" transform="translate(28.269 0.388)">
				<rect id="사각형_105" x="39.4" y="587.9" class="st1" width="1.8" height="18.1"/>
				<rect id="사각형_106" x="29.5" y="599.1" class="st1" width="8.1" height="1.8"/>
				<path id="패스_571" class="st1" d="M33.3,588.2"/>
				<path id="패스_572" class="st1" d="M35.3,593.1c-0.1,1.2-0.8,2.4-1.9,3c-1.1-0.5-1.8-1.6-1.9-2.9l0,0c0.1-1.3,0.8-2.4,1.9-3
					C34.5,590.8,35.2,591.9,35.3,593.1z M33.3,588.2c0,0-3.5,1.4-3.6,4.9l0,0c0.2,3.6,3.7,4.9,3.7,4.9s3.5-1.4,3.7-4.9l0,0
					C36.8,589.6,33.3,588.2,33.3,588.2"/>
			</g>
			<g id="그룹_320" transform="translate(0 0.155)">
				<g id="그룹_319">
					<path id="패스_573" class="st1" d="M30.5,601.6c0.8-0.3,1.4-0.7,2-1.2c0.8-0.8,1.2-1.9,1.1-3c-0.1-1-0.5-2-1-3
						c-0.6-0.7-0.9-1.6-0.9-2.5c0.1-1.1,0.9-2,1.9-2.3l-1.1-1.7c-0.7,0.2-1.3,0.6-1.7,1.1c-0.8,0.8-1.2,2-1.1,3.1c0.1,1,0.5,2,1,3
						c1.1,1.8,0.9,2.3,0.9,2.3c0.1,1.6-2.3,2.5-2.3,2.5L30.5,601.6z"/>
				</g>
				<path id="패스_574" class="st1" d="M40.2,588v5.1h-1.6v-5.2h-1.7v14h1.7v-7h1.6v7.1h1.6v-14H40.2z"/>
				<path id="패스_575" class="st1" d="M36.8,610.8c-1.3,0-2.4-1.1-2.4-2.4s1.1-2.4,2.4-2.4s2.4,1.1,2.4,2.4l0,0
					C39.2,609.7,38.1,610.8,36.8,610.8 M36.8,604c-2.4,0-4.4,1.9-4.4,4.3c0,2.4,2,4.4,4.4,4.4c0,0,0,0,0.1,0c2.4,0,4.4-1.9,4.4-4.3
					c0,0,0,0,0-0.1C41.2,606,39.2,604,36.8,604"/>
			</g>
			<g id="그룹_321" transform="translate(14.911 0.233)">
				<path id="패스_576" class="st1" d="M32.9,599.4h-1.8v-8.9h1.8L32.9,599.4z M34.6,590.5v-1.8h-5.1v1.8l0,0v8.9l0,0v1.8h5.1
					v-1.8l0,0V590.5L34.6,590.5z"/>
				<path id="패스_577" class="st1" d="M38.8,587.9v3h-2.4v1.8h2.4v3h-2.4v1.8h2.4v4.3h1.8v-14H38.8z"/>
				<path id="패스_578" class="st1" d="M35.4,610.7c-1.3,0-2.4-1.1-2.4-2.4s1.1-2.4,2.4-2.4c1.3,0,2.4,1.1,2.4,2.4c0,0,0,0,0,0
					C37.8,609.6,36.8,610.7,35.4,610.7 M35.4,603.9c-2.4,0-4.4,1.9-4.4,4.3c0,2.4,2,4.4,4.5,4.4c2.4,0,4.3-2,4.4-4.4
					C39.8,605.9,37.9,603.9,35.4,603.9"/>
			</g>
			<g id="그룹_322" transform="translate(45.277)">
				<path id="패스_579" class="st1" d="M30.5,601.7c0.8-0.3,1.4-0.7,2-1.2c0.8-0.8,1.2-1.9,1.1-3c-0.1-1-0.5-2-1-3
					c-0.6-0.7-0.9-1.6-0.9-2.6c0.1-1.6,1.9-2.2,1.9-2.2l-1-1.8c-0.7,0.2-1.3,0.6-1.8,1.1c-0.8,0.8-1.2,2-1.1,3.1c0.1,1,0.5,2,1,3
					c1.1,1.8,0.9,2.3,0.9,2.3c0.1,1.5-2.3,2.5-2.3,2.5L30.5,601.7z"/>
				<path id="패스_580" class="st1" d="M38.8,588.3v14h1.8v-7h2.1v-1.8h-2.1v-5.2H38.8z"/>
				<path id="패스_581" class="st1" d="M37.5,606h1.6v5h-1.6V606z M35.9,604.3v1.8l0,0v5l0,0v1.8h4.8V611l0,0v-5l0,0v-1.8H35.9z"
					/>
				<path id="패스_582" class="st1" d="M34.4,604.3h-3.9v1.8h2.9v1.6h-2.9v1.8l0,0v3.3h4.6V611h-2.8v-1.6h2.9v-1.8l0,0v-3.3H34.4z
					"/>
			</g>
		</g>
		<g id="그룹_709" transform="translate(-298.172 836.607)">
			<path id="패스_4753" class="st23" d="M569.8,963.3h5.8v6.1h2.5v-6.1h5.6v-2.3H578v-5.6h-2.5v5.6h-5.8"/>
			<path id="패스_4754" class="st24" d="M590.2,961.6h1.6c1.3,0,1.6-0.2,2-0.8c0.3-0.5,0.4-1.1,0.4-1.7c0-1.5-0.8-2.4-2.1-2.4h-2
				L590.2,961.6z M591.2,954c2.6,0,3.4,0.3,4.2,0.8c1.4,0.9,2.3,2.5,2.2,4.2c0.1,1.9-0.9,3.8-2.6,4.7c-1,0.4-2,0.6-3,0.5h-1.7v6
				h-3.1V954L591.2,954z"/>
			<path id="패스_4756" class="st24" d="M606.7,970.2h-6.9v-12.5h3v10h4.5L606.7,970.2z"/>
			<path id="패스_4757" class="st24" d="M617.5,969.2c-1,0.9-2.3,1.4-3.7,1.3c-2,0-3.5-0.5-4.2-1.6c-0.5-0.8-0.7-1.7-0.6-2.7v-8.5
				h3v8.2c-0.1,0.5,0,1,0.2,1.4c0.4,0.5,0.9,0.7,1.5,0.7c0.5,0,1-0.2,1.4-0.5c0.2-0.2,0.4-0.6,0.4-1.9v-7.9h3v8.3
				C618.5,967.9,618.1,968.5,617.5,969.2"/>
			<path id="패스_4758" class="st24" d="M625.3,970.5c-1.5,0-3-0.4-4.3-1l1-2.4c1.1,0.6,2.3,0.9,3.5,0.9c1.4,0,2.1-0.4,2.1-1.2
				c0-0.7-0.5-1.1-1.5-1.4l-1.5-0.4c-1.1-0.2-2-0.8-2.6-1.8c-0.3-0.6-0.5-1.3-0.5-1.9c0-2.3,2-4,4.8-4c1.6,0,3.2,0.4,4.5,1.3
				l-1.4,2.2c-0.9-0.6-2-0.9-3.1-0.9c-0.9,0-1.6,0.4-1.6,1.1c0,0.6,0.2,0.9,1.2,1.1l1.6,0.4c2.1,0.5,3.3,1.7,3.3,3.6
				C630.8,968.8,628.6,970.5,625.3,970.5"/>
		</g>
	</g>
</g>
</svg>
