<svg xmlns="http://www.w3.org/2000/svg" width="135" height="33.508" viewBox="0 0 135 33.508">
  <g id="그룹_578" data-name="그룹 578" transform="translate(-72.02 -432.461)">
    <g id="그룹_577" data-name="그룹 577" transform="translate(72.02 432.461)">
      <path id="패스_4569" data-name="패스 4569" d="M73.453,452.221a7.888,7.888,0,0,0,2.923-1.756,5.3,5.3,0,0,0,1.589-4.287h0a10.6,10.6,0,0,0-1.474-4.255h0c-1.458-2.3-1.275-3.675-1.275-3.675.066-2.385,2.749-3.145,2.749-3.145l-1.483-2.517h0a5.564,5.564,0,0,0-2.525,1.556,5.3,5.3,0,0,0-1.523,4.47,10.412,10.412,0,0,0,1.457,4.239h0c1.573,2.6,1.307,3.389,1.307,3.389h0c.092,2.152-3.179,3.542-3.179,3.542Z" transform="translate(-72.02 -432.398)" fill="#1a1311"/>
      <path id="패스_4570" data-name="패스 4570" d="M83.687,432.755V440H81.381v-7.367H79.019V452.6h2.362V442.585h2.306V452.72h2.362V432.755Z" transform="translate(-68.495 -432.373)" fill="#1a1311"/>
      <path id="패스_4571" data-name="패스 4571" d="M93.36,436v-2.583H86.131V436h.006v12.62h-.006V451.2H93.36v-2.583h-.006V436Zm-2.368,12.62H88.5V436h2.494Z" transform="translate(-64.914 -431.979)" fill="#1a1311"/>
      <path id="패스_4572" data-name="패스 4572" d="M96.031,432.693v4.277H92.6v2.582h3.427V443.9H92.6v2.583h3.427v6.175h2.583V432.693Z" transform="translate(-61.654 -432.344)" fill="#1a1311"/>
      <rect id="사각형_1031" data-name="사각형 1031" width="2.582" height="25.925" transform="translate(54.225 0.533)" fill="#1a1311"/>
      <rect id="사각형_1032" data-name="사각형 1032" width="11.423" height="2.583" transform="translate(40.093 15.516)" fill="#1a1311"/>
      <g id="그룹_576" data-name="그룹 576" transform="translate(40.486 0.926)">
        <path id="패스_4573" data-name="패스 4573" d="M102.375,433.077l0,.012,0-.012Z" transform="translate(-97.219 -433.077)" fill="#1a1311"/>
        <path id="패스_4574" data-name="패스 4574" d="M104.1,433.085s-4.969,1.949-5.157,7.02v.032c.188,5.072,5.157,7.02,5.157,7.02h0s4.969-1.949,5.157-7.02v-.032C109.073,435.034,104.1,433.085,104.1,433.085Zm2.75,7.07a5.043,5.043,0,0,1-2.776,4.171,4.925,4.925,0,0,1-2.785-4.121v-.018a5.433,5.433,0,0,1,2.785-4.324,5.3,5.3,0,0,1,2.776,4.275Z" transform="translate(-98.946 -433.073)" fill="#1a1311"/>
      </g>
      <path id="패스_4575" data-name="패스 4575" d="M116.269,452.095a7.861,7.861,0,0,0,2.921-1.755,5.308,5.308,0,0,0,1.589-4.288h0a10.593,10.593,0,0,0-1.474-4.254h0c-1.458-2.3-1.275-3.676-1.275-3.676.066-2.383,2.749-3.144,2.749-3.144l-1.483-2.517h0a5.56,5.56,0,0,0-2.525,1.556,5.3,5.3,0,0,0-1.523,4.47,10.4,10.4,0,0,0,1.457,4.237h0c1.573,2.6,1.307,3.391,1.307,3.391h0c.092,2.152-3.179,3.542-3.179,3.542Z" transform="translate(-50.459 -432.461)" fill="#1a1311"/>
      <path id="패스_4576" data-name="패스 4576" d="M129.142,440.158h-2.985v-7.367h-2.583v19.965h2.583V442.741h2.985Z" transform="translate(-46.058 -432.295)" fill="#1a1311"/>
      <path id="패스_4577" data-name="패스 4577" d="M80.986,447.9a6.244,6.244,0,1,0,6.243,6.244A6.245,6.245,0,0,0,80.986,447.9Zm0,9.677a3.433,3.433,0,1,1,3.433-3.433A3.433,3.433,0,0,1,80.986,457.58Z" transform="translate(-70.649 -426.884)" fill="#1a1311"/>
      <path id="패스_4578" data-name="패스 4578" d="M93.807,447.9a6.244,6.244,0,1,0,6.243,6.244A6.245,6.245,0,0,0,93.807,447.9Zm0,9.677a3.433,3.433,0,1,1,3.433-3.433A3.433,3.433,0,0,1,93.807,457.58Z" transform="translate(-64.193 -426.884)" fill="#1a1311"/>
      <path id="패스_4579" data-name="패스 4579" d="M127.656,450.583V448h-6.787v2.582h0v7.1h0v2.582h6.787v-2.582h-.006v-7.1Zm-2.147,7.1h-2.273v-7.1h2.273Z" transform="translate(-47.42 -426.834)" fill="#1a1311"/>
      <path id="패스_4580" data-name="패스 4580" d="M118.417,455.382h4.043v-2.534h-.011v-4.814h-6.666v2.582h4.084v2.231h-4.056v2.534h.024v4.832h6.525v-2.583h-3.943v-2.249Z" transform="translate(-49.981 -426.817)" fill="#1a1311"/>
    </g>
    <path id="패스_4581" data-name="패스 4581" d="M153.932,464.327a24.265,24.265,0,0,1-4.272-1.972,23.52,23.52,0,0,1-3.568-2.709l-1.164.017a8.367,8.367,0,0,1-7.277-3.6,17.854,17.854,0,0,1,0-18.346,9.116,9.116,0,0,1,14.484,0,15.544,15.544,0,0,1,2.538,9.2,18.962,18.962,0,0,1-1.173,6.741,10.645,10.645,0,0,1-4.345,5.183,22.278,22.278,0,0,0,7.068,2.775ZM138.8,446.9q0,5.222,1.571,7.777a5.283,5.283,0,0,0,9.052-.008q1.57-2.563,1.57-7.785,0-5.205-1.57-7.76a5.287,5.287,0,0,0-9.052,0Q138.8,441.678,138.8,446.9Z" transform="translate(29.207 0.846)" fill="#1a1311"/>
    <path id="패스_4582" data-name="패스 4582" d="M158.83,459.956V436.974h-8.688v-2.4H171v2.4h-8.686v22.982Z" transform="translate(36.016 1.064)" fill="#1a1311"/>
  </g>
</svg>
